<svg width="23" height="22" viewBox="0 0 23 22" fill="none" xmlns="http://www.w3.org/2000/svg">
<path d="M9.60088 0.166504C9.43186 0.166511 9.26976 0.233657 9.15025 0.353172C9.03073 0.472686 8.96359 0.634782 8.96358 0.803801V2.15667C8.19068 2.36381 7.44813 2.6709 6.75496 3.07071L5.79853 2.11428C5.67901 1.99477 5.51691 1.92764 5.34789 1.92764C5.17887 1.92764 5.01678 1.99477 4.89726 2.11428L2.44778 4.56376C2.32827 4.68328 2.26113 4.84538 2.26113 5.0144C2.26113 5.18341 2.32827 5.34551 2.44778 5.46503L3.40421 6.42122C3.00391 7.11439 2.69634 7.85695 2.48921 8.63008H1.1373C0.968278 8.63009 0.806183 8.69724 0.686668 8.81675C0.567153 8.93626 0.500007 9.09836 0.5 9.26738V12.7323C0.500007 12.9013 0.567153 13.0634 0.686668 13.1829C0.806183 13.3024 0.968278 13.3696 1.1373 13.3696H2.48921C2.69634 14.1427 3.00391 14.8853 3.40421 15.5782L2.44778 16.5346C2.32827 16.6542 2.26113 16.8163 2.26113 16.9853C2.26113 17.1543 2.32827 17.3164 2.44778 17.4359L4.89726 19.8854C5.01678 20.0049 5.17887 20.072 5.34789 20.072C5.51691 20.072 5.67901 20.0049 5.79853 19.8854L6.75496 18.929C7.44813 19.3288 8.19068 19.6361 8.96358 19.843V21.1959C8.96359 21.3649 9.03073 21.527 9.15025 21.6465C9.26976 21.766 9.43186 21.8332 9.60088 21.8332H13.0646C13.2336 21.8332 13.3957 21.766 13.5152 21.6465C13.6347 21.527 13.7019 21.3649 13.7019 21.1959V19.843C14.475 19.6359 15.2173 19.3288 15.9105 18.929L16.8669 19.8854C16.9865 20.0049 17.1486 20.072 17.3176 20.072C17.4866 20.072 17.6487 20.0049 17.7682 19.8854L20.2177 17.4359C20.3372 17.3164 20.4043 17.1543 20.4043 16.9853C20.4043 16.8163 20.3372 16.6542 20.2177 16.5346L19.2613 15.5782C19.6616 14.8853 19.9691 14.1427 20.1763 13.3696H21.5294C21.6984 13.3696 21.8605 13.3024 21.98 13.1829C22.0995 13.0634 22.1667 12.9013 22.1667 12.7323V9.26738C22.1667 9.09836 22.0995 8.93626 21.98 8.81675C21.8605 8.69724 21.6984 8.63009 21.5294 8.63008H20.1813C19.9742 7.85598 19.6652 7.11247 19.2639 6.41857L20.2177 5.46503C20.3372 5.34551 20.4043 5.18341 20.4043 5.0144C20.4043 4.84538 20.3372 4.68328 20.2177 4.56376L17.7682 2.11428C17.6487 1.99477 17.4866 1.92764 17.3176 1.92764C17.1486 1.92764 16.9865 1.99477 16.8669 2.11428L15.9132 3.06806C15.2193 2.66728 14.476 2.35923 13.7019 2.15186V0.803801C13.7019 0.634782 13.6347 0.472686 13.5152 0.353172C13.3957 0.233657 13.2336 0.166511 13.0646 0.166504H9.60088ZM10.2382 1.44086H12.4273V2.65452C12.4273 2.80101 12.4778 2.94301 12.5703 3.05663C12.6628 3.17024 12.7916 3.24854 12.935 3.27833C13.9056 3.48064 14.8298 3.86288 15.6586 4.40696C15.7811 4.48741 15.9275 4.52319 16.0733 4.50827C16.2191 4.49335 16.3553 4.42866 16.4589 4.32507L17.3176 3.46643L18.8658 5.01464L18.0071 5.87328C17.9035 5.97695 17.8388 6.11318 17.8238 6.25902C17.8089 6.40485 17.8447 6.55137 17.9252 6.67387C18.4698 7.50265 18.853 8.42656 19.0551 9.39744C19.085 9.54078 19.1633 9.66946 19.2769 9.76184C19.3905 9.85421 19.5325 9.90466 19.6789 9.90468H20.8926V12.0952H19.6738C19.5273 12.0953 19.3853 12.1458 19.2717 12.2383C19.1581 12.3307 19.0798 12.4595 19.05 12.603C18.8477 13.5729 18.466 14.4958 17.9226 15.3241C17.8422 15.4466 17.8065 15.593 17.8214 15.7387C17.8363 15.8844 17.901 16.0206 18.0045 16.1242L18.8655 16.9855L17.3173 18.5337L16.456 17.6724C16.3524 17.569 16.2163 17.5043 16.0706 17.4894C15.925 17.4745 15.7786 17.5102 15.6562 17.5905C14.8279 18.1334 13.9047 18.5154 12.935 18.7168C12.7915 18.7465 12.6627 18.8248 12.5702 18.9384C12.4776 19.052 12.4271 19.1941 12.427 19.3406V20.5591H10.2379V19.3406C10.2379 19.1941 10.1873 19.052 10.0948 18.9384C10.0023 18.8248 9.87345 18.7465 9.72997 18.7168C8.7603 18.5145 7.83711 18.1334 7.00882 17.5905C6.88637 17.5102 6.74001 17.4745 6.59434 17.4894C6.44866 17.5043 6.31257 17.569 6.20894 17.6724L5.34765 18.5337L3.79945 16.9855L4.66074 16.1242C4.76426 16.0206 4.82892 15.8844 4.84384 15.7387C4.85875 15.593 4.82301 15.4466 4.74263 15.3241C4.19926 14.4958 3.81679 13.5729 3.61519 12.603C3.5854 12.4595 3.50711 12.3307 3.3935 12.2383C3.27988 12.1458 3.13788 12.0953 2.99138 12.0952H1.77411V9.90468H2.99138C3.13784 9.90464 3.27982 9.85417 3.39343 9.76175C3.50704 9.66932 3.58536 9.54059 3.61519 9.3972C3.81751 8.42728 4.19926 7.50409 4.74263 6.67604C4.82301 6.55358 4.85875 6.40716 4.84384 6.26144C4.82892 6.11571 4.76426 5.97957 4.66074 5.87593L3.79945 5.01464L5.34765 3.46643L6.20894 4.32748C6.31257 4.43095 6.44866 4.49557 6.59434 4.51048C6.74001 4.5254 6.88637 4.48969 7.00882 4.40937C7.83711 3.86649 8.7603 3.4845 9.72997 3.28314C9.87349 3.25339 10.0024 3.17509 10.0949 3.06142C10.1874 2.94775 10.2379 2.80566 10.2379 2.65909L10.2382 1.44086ZM11.3333 4.22343C9.53633 4.22343 7.8123 4.93756 6.5418 6.20806C5.27106 7.47881 4.55693 9.20283 4.55693 10.9998C4.55693 12.7968 5.27106 14.5209 6.5418 15.7914C7.8123 17.0621 9.53633 17.7762 11.3333 17.7762C13.1303 17.7762 14.8544 17.0621 16.1251 15.7914C17.3956 14.5209 18.1097 12.7968 18.1097 10.9998C18.1097 9.20283 17.3956 7.47881 16.1251 6.20806C14.8544 4.93756 13.1303 4.22343 11.3333 4.22343ZM11.3333 5.49779C12.7929 5.49779 14.1918 6.07728 15.2238 7.10934C16.2559 8.14139 16.8354 9.54027 16.8354 10.9998C16.8354 12.4043 16.2985 13.7523 15.3385 14.7716V14.3906C15.3385 12.8587 14.4733 11.5249 13.2062 10.8515C13.6477 10.3869 13.9199 9.75992 13.9199 9.07349C13.9199 7.65246 12.7544 6.48697 11.3333 6.48697C9.91254 6.48697 8.74705 7.65246 8.74705 9.07349C8.74705 9.75992 9.01898 10.3869 9.46046 10.8515C8.19333 11.5249 7.32819 12.8587 7.32819 14.3906V14.7716C6.36815 13.7523 5.83152 12.4043 5.83152 10.9998C5.83152 9.54027 6.41102 8.14139 7.44283 7.10934C8.47489 6.07728 9.874 5.49779 11.3333 5.49779ZM11.3333 7.76157C12.0655 7.76157 12.6453 8.3413 12.6453 9.07349C12.6453 9.80545 12.0655 10.3854 11.3333 10.3854C10.6011 10.3854 10.0214 9.80545 10.0214 9.07349C10.0214 8.3413 10.6011 7.76157 11.3333 7.76157ZM11.3326 11.6598C12.8562 11.6603 14.0641 12.8669 14.0641 14.3906V15.776C13.2397 16.2473 12.2999 16.5016 11.3333 16.5016C10.367 16.5016 9.42698 16.2473 8.60254 15.776V14.3906C8.60254 12.8669 9.80921 11.6603 11.3326 11.6598Z" fill="#CAAE5B"/>
</svg>
