<svg width="14" height="16" viewBox="0 0 14 16" fill="none" xmlns="http://www.w3.org/2000/svg">
<path d="M7.00005 0.615234C6.48947 0.615234 6.07697 1.02773 6.07697 1.53831V2.09216C3.9712 2.51908 2.38466 4.38254 2.38466 6.61523V7.15754C2.38466 8.51331 1.88563 9.82293 0.985626 10.8383L0.772164 11.0777C0.529856 11.3489 0.472164 11.7383 0.61928 12.07C0.766395 12.4018 1.09813 12.6152 1.46159 12.6152H12.5385C12.902 12.6152 13.2308 12.4018 13.3808 12.07C13.5308 11.7383 13.4702 11.3489 13.2279 11.0777L13.0145 10.8383C12.1145 9.82293 11.6154 8.5162 11.6154 7.15754V6.61523C11.6154 4.38254 10.0289 2.51908 7.92313 2.09216V1.53831C7.92313 1.02773 7.51062 0.615234 7.00005 0.615234ZM8.30678 14.845C8.65293 14.4989 8.8462 14.0287 8.8462 13.5383H7.00005H5.15389C5.15389 14.0287 5.34716 14.4989 5.69332 14.845C6.03947 15.1912 6.50966 15.3845 7.00005 15.3845C7.49043 15.3845 7.96063 15.1912 8.30678 14.845Z" fill="#29235C"/>
</svg>
