<svg width="19" height="20" viewBox="0 0 19 20" fill="none" xmlns="http://www.w3.org/2000/svg">
<path d="M0.853744 1.91398H2.66464V0.49974C2.66464 0.223797 2.88868 0 3.16462 0H5.21863C5.49481 0 5.71861 0.223797 5.71861 0.49974V1.91398H13.6353V0.49974C13.6353 0.223797 13.8591 0 14.1353 0H16.1893C16.4652 0 16.6892 0.223797 16.6892 0.49974V1.91398H18.5001C18.7761 1.91398 18.9999 2.13778 18.9999 2.41396V19.5C18.9999 19.776 18.7761 20 18.5001 20H0.853744C0.577801 20 0.354004 19.776 0.354004 19.5V2.41396C0.354004 2.13778 0.577801 1.91398 0.853744 1.91398ZM3.73655 8.01564H5.32389V9.60298H3.73655V8.01564ZM3.73655 15.4384H5.32389V17.0257H3.73655V15.4384ZM14.03 15.4384H15.6173V17.0257H14.03V15.4384ZM10.5989 15.4384H12.1863V17.0257H10.5989V15.4384ZM7.16762 15.4384H8.75496V17.0257H7.16762V15.4384ZM3.73655 11.727H5.32389V13.3143H3.73655V11.727ZM14.03 11.727H15.6173V13.3143H14.03V11.727ZM10.5989 11.727H12.1863V13.3143H10.5989V11.727ZM7.16762 11.727H8.75496V13.3143H7.16762V11.727ZM14.03 8.01564H15.6173V9.60298H14.03V8.01564ZM10.5989 8.01564H12.1863V9.60298H10.5989V8.01564ZM7.16762 8.01564H8.75496V9.60298H7.16762V8.01564ZM1.35373 5.97516H18.0002V2.91395H16.6892V4.28111C16.6892 4.55729 16.4652 4.78109 16.1893 4.78109H14.1353C13.8591 4.78109 13.6353 4.55729 13.6353 4.28111V2.91395H5.71861V4.28111C5.71861 4.55729 5.49481 4.78109 5.21863 4.78109H3.16462C2.88868 4.78109 2.66464 4.55729 2.66464 4.28111V2.91395H1.35373V5.97516ZM18.0002 6.97512H1.35373V19H18.0002V6.97512ZM3.6646 3.78113H4.71865V0.999722H3.6646V3.78113ZM14.6352 3.78113H15.6893V0.999722H14.6352V3.78113Z" fill="black"/>
</svg>
