<svg width="125" height="129" viewBox="0 0 125 129" fill="none" xmlns="http://www.w3.org/2000/svg">
<g clip-path="url(#clip0_170_1167)">
<path d="M72.821 120.074H55.5154L54.9303 124.638H75.1177L72.821 120.074ZM124.518 19.4733C124.518 14.3533 120.364 10.1987 115.244 10.1841H98.0407V7.44857C98.0407 3.61589 94.9248 0.5 91.0775 0.5C87.2302 0.5 84.1289 3.61589 84.1289 7.44857V10.1987H40.3895V7.44857C40.3456 3.64514 37.2443 0.573143 33.4409 0.573143C29.6375 0.573143 26.5362 3.64514 26.4923 7.44857V10.1841H9.28914C4.16914 10.1987 0.0146286 14.3533 0 19.4733C0 26.7875 0.0146286 111.077 0 115.364C0.0146286 120.484 4.16914 124.638 9.28914 124.638H30.208L32.5047 120.074H9.28914C6.68526 120.059 4.57874 117.953 4.57874 115.364V111.341C5.99771 112.204 7.62149 112.657 9.28914 112.672H29.7545C29.7545 112.204 29.8423 111.736 29.9593 111.253C30.2811 110.024 30.9394 108.942 31.8171 108.093H9.28914C6.68526 108.093 4.57874 105.987 4.57874 103.383V38.6952H119.94V103.383C119.94 105.987 117.833 108.093 115.229 108.093H87.3765C85.9282 109.585 84.3337 111.194 82.8562 112.672H115.229C116.897 112.657 118.521 112.204 119.94 111.341V115.364C119.94 117.953 117.833 120.059 115.229 120.074H77.941L80.2377 124.638H115.229C120.349 124.638 124.504 120.484 124.518 115.364V103.383C124.518 103.383 124.504 36.4278 124.518 36.3985V19.4733ZM88.7077 7.44857C88.7223 6.14663 89.7902 5.108 91.0921 5.108C92.3941 5.108 93.4473 6.14663 93.4619 7.44857V22.1795C93.4619 23.4815 92.3941 24.5494 91.0775 24.5494C89.7609 24.5494 88.7077 23.4815 88.7077 22.1795V7.44857ZM31.0711 7.44857C31.0857 6.14663 32.139 5.108 33.4409 5.108C34.7429 5.108 35.7961 6.14663 35.8254 7.44857V22.1795C35.7961 23.4669 34.7429 24.5201 33.4409 24.5201C32.139 24.5201 31.0857 23.4669 31.0711 22.1795V7.44857ZM119.94 34.1311H4.57874V19.4733C4.57874 16.8694 6.68526 14.7629 9.28914 14.7629H26.4923V20.0145H23.9616C23.3472 20.0145 22.7767 20.2486 22.3378 20.6874C21.899 21.1263 21.6795 21.6822 21.6795 22.2966C21.8112 25.2077 24.971 24.5055 26.9458 24.5786C27.9698 27.2703 30.5591 29.0696 33.4409 29.0696C36.3227 29.0696 38.912 27.2703 39.936 24.5786H42.9349C44.1783 24.564 45.1877 23.54 45.1877 22.2966C45.1877 21.0531 44.1783 20.0291 42.9349 20.0145H40.3895V14.7629H84.1289V20.0145H81.5982C80.3547 20.0438 79.36 21.0531 79.36 22.2966C79.36 23.54 80.3547 24.564 81.5982 24.5786H84.597C85.621 27.2703 88.2103 29.055 91.0921 29.055C93.9739 29.055 96.5486 27.2703 97.5872 24.5786H100.586C101.829 24.564 102.839 23.54 102.839 22.2966C102.839 21.0531 101.829 20.0291 100.586 20.0145H98.0407V14.7629H115.244C117.833 14.7629 119.954 16.8694 119.954 19.4733V34.1311H119.94ZM37.6101 120.074L35.328 124.638H50.293L50.8928 120.074H37.6101Z" fill="#CAAE5B"/>
<path d="M93.4613 7.44848V22.1795C93.4613 23.4814 92.3934 24.5493 91.0769 24.5493C89.7603 24.5493 88.707 23.4814 88.707 22.1795V7.44848C88.7217 6.14654 89.7895 5.10791 91.0915 5.10791C92.3934 5.10791 93.4467 6.14654 93.4613 7.44848Z" fill="#F9F6EE"/>
<path d="M35.8256 7.44848V22.1795C35.7963 23.4668 34.7431 24.52 33.4411 24.52C32.1392 24.52 31.0859 23.4668 31.0713 22.1795V7.44848C31.0859 6.14654 32.1392 5.10791 33.4411 5.10791C34.7431 5.10791 35.7963 6.14654 35.8256 7.44848Z" fill="#F9F6EE"/>
<path d="M119.955 19.4736V34.1314H4.5791V19.4736C4.5791 16.8697 6.68562 14.7632 9.2895 14.7632H26.4927V20.0148H23.962C23.3476 20.0148 22.777 20.2489 22.3382 20.6878C21.8993 21.1266 21.6799 21.6825 21.6799 22.2969C21.8116 25.208 24.9713 24.5058 26.9462 24.579C27.9702 27.2706 30.5594 29.0699 33.4413 29.0699C36.3231 29.0699 38.9124 27.2706 39.9364 24.579H42.9352C44.1786 24.5643 45.188 23.5403 45.188 22.2969C45.188 21.0535 44.1786 20.0295 42.9352 20.0148H40.3898V14.7632H84.1293V20.0148H81.5985C80.3551 20.0441 79.3604 21.0535 79.3604 22.2969C79.3604 23.5403 80.3551 24.5643 81.5985 24.579H84.5974C85.6214 27.2706 88.2106 29.0553 91.0925 29.0553C93.9743 29.0553 96.5489 27.2706 97.5876 24.579H100.586C101.83 24.5643 102.839 23.5403 102.839 22.2969C102.839 21.0535 101.83 20.0295 100.586 20.0148H98.041V14.7632H115.244C117.834 14.7632 119.955 16.8697 119.955 19.4736Z" fill="#F9F6EE"/>
<path d="M92.8613 93.0262C90.2282 90.4076 85.9713 90.4076 83.3381 93.0554L70.2602 106.221H36.4097C34.6396 106.236 33.0158 106.938 31.8163 108.094C30.9386 108.942 30.2803 110.025 29.9585 111.253C29.8414 111.736 29.7683 112.204 29.7537 112.672C29.6513 115.159 30.9239 117.529 33.1475 118.802L32.5038 120.074L30.2071 124.639L29.9292 125.18C29.3587 126.306 29.8122 127.681 30.9386 128.252C32.065 128.822 33.4401 128.369 34.0106 127.242L35.3271 124.639L37.6092 120.074L37.814 119.679H71.1964C71.6499 119.679 72.1034 119.621 72.5569 119.548L72.8202 120.074L75.1169 124.639L76.4188 127.242C77.0039 128.34 78.3644 128.778 79.4762 128.208C80.5879 127.652 81.0414 126.306 80.5148 125.18L80.2369 124.639L77.9402 120.074L76.9162 118.056C77.4428 117.924 79.9735 115.54 82.8554 112.672C84.3329 111.195 85.9274 109.586 87.3756 108.094C90.0819 105.343 92.3786 102.988 92.8906 102.535C94.1925 101.218 94.8508 99.5066 94.8508 97.7951C94.8508 96.0835 94.1779 94.3427 92.8613 93.0262ZM89.643 99.3165L80.9098 108.094L76.3603 112.672L75.8629 113.17C74.6341 114.413 72.9372 115.101 71.1964 115.115H36.4097C35.2394 115.086 34.3031 114.135 34.3031 112.95C34.3031 112.848 34.3031 112.76 34.3324 112.672C34.4641 111.634 35.3418 110.815 36.4097 110.8H70.2602C71.4597 110.8 72.6154 110.317 73.4638 109.469L74.8243 108.094L86.5857 96.2737C87.0099 95.8641 87.5511 95.6593 88.0924 95.6593C88.6337 95.6593 89.1895 95.8787 89.6138 96.2883C90.433 97.1222 90.4476 98.468 89.643 99.3165Z" fill="#29235C"/>
<path d="M55.5733 119.679L55.5148 120.074L54.9296 124.638L54.6809 126.496C54.4908 127.74 53.3497 128.588 52.1209 128.427C50.8775 128.266 50.0144 127.14 50.1461 125.911L50.307 124.638L50.9068 120.074L50.9653 119.679H55.5879H55.5733Z" fill="#CAAE5B"/>
<path d="M119.94 38.6953V103.383C119.94 105.987 117.833 108.093 115.23 108.093H87.3768C90.0831 105.343 92.3798 102.988 92.8918 102.534C94.1937 101.218 94.852 99.5063 94.852 97.7947C94.852 96.0832 94.1791 94.3424 92.8625 93.0258C90.2294 90.4073 85.9725 90.4073 83.3393 93.0551L70.2614 106.221H57.3444L59.7434 87.8473C67.8038 88.7689 86.7185 89.4418 87.6986 81.7033C88.6202 74.4768 86.8209 67.1918 82.6664 61.2233C78.4973 55.2549 72.2655 51.0418 65.1706 49.4181L65.551 46.5655C65.6241 45.9511 65.4632 45.3513 65.0975 44.8686C64.7172 44.3858 64.1759 44.064 63.5761 43.9909C60.7236 43.7275 60.943 46.8581 60.6358 48.7744C53.263 48.3209 45.978 50.6907 40.2582 55.3865C34.5384 60.0823 30.8081 66.7529 29.7988 74.0818C28.8625 81.2206 44.3981 85.5653 55.2086 87.2622L52.7364 106.221H36.4109C34.6408 106.235 33.017 106.938 31.8175 108.093H9.2895C6.68562 108.093 4.5791 105.987 4.5791 103.383V38.6953H119.94Z" fill="#F9F6EE"/>
<path d="M72.8212 120.074H55.5156L55.5741 119.679H71.1974C71.6509 119.679 72.1044 119.621 72.5579 119.547L72.8212 120.074Z" fill="#F9F6EE"/>
<path d="M50.9516 119.679L50.8931 120.074H37.6104L37.8152 119.679H50.9516Z" fill="#F9F6EE"/>
<path d="M119.94 111.341V115.364C119.94 117.953 117.833 120.059 115.229 120.074H77.941L76.917 118.055C77.4436 117.924 79.9744 115.539 82.8562 112.672H115.229C116.897 112.657 118.521 112.204 119.94 111.341Z" fill="#F9F6EE"/>
<path d="M33.1487 118.801L32.505 120.074H9.2895C6.68562 120.059 4.5791 117.953 4.5791 115.364V111.341C5.99807 112.204 7.62184 112.657 9.2895 112.672H29.7549C29.6525 115.159 30.9252 117.529 33.1487 118.801Z" fill="#F9F6EE"/>
<path d="M89.6446 99.3158L80.9113 108.093L76.3618 112.672L75.8645 113.169C74.6357 114.413 72.9387 115.1 71.1979 115.115H36.4112C35.2409 115.085 34.3047 114.135 34.3047 112.95C34.3047 112.847 34.3047 112.759 34.3339 112.672C34.4656 111.633 35.3433 110.814 36.4112 110.799H70.2617C71.4613 110.799 72.6169 110.317 73.4654 109.468L74.8258 108.093L86.5872 96.2731C87.0114 95.8635 87.5527 95.6587 88.0939 95.6587C88.6352 95.6587 89.1911 95.8781 89.6153 96.2877C90.4345 97.1215 90.4491 98.4674 89.6446 99.3158Z" fill="#F9F6EE"/>
<path d="M83.1935 75.0327C79.7119 73.0578 75.967 71.5657 72.0904 70.6002C71.593 65.0999 70.0278 59.7605 67.4678 54.8745C71.6808 56.4837 75.3526 59.2192 78.132 62.7739C80.8968 66.3287 82.6376 70.571 83.1935 75.0327Z" fill="#F9F6EE"/>
<path d="M56.2907 53.3975C52.5604 57.4642 49.6639 62.2185 47.7622 67.397C43.7686 67.3239 39.775 67.792 35.8984 68.816C37.5807 64.6322 40.3748 60.9897 43.9588 58.2834C47.5574 55.5625 51.8143 53.8802 56.2907 53.3975Z" fill="#F9F6EE"/>
<path d="M67.3794 69.4589C65.0242 68.9615 62.5519 68.5373 60.0358 68.2008C57.8123 67.9082 55.2669 67.6742 52.6191 67.5279C54.7257 62.4957 57.8854 57.9754 61.879 54.2744H61.8937C64.7901 58.8824 66.6772 64.0609 67.394 69.4589H67.3794Z" fill="#F9F6EE"/>
<path d="M83.1633 81.1038C82.5636 82.4204 74.8104 84.8926 60.3428 83.3274L61.6886 73.0581C76.0539 75.2816 82.9293 79.6702 83.1633 81.1038Z" fill="#F9F6EE"/>
<path d="M57.1536 72.4729L55.8078 82.7276C41.3547 80.4894 34.4939 76.0716 34.333 74.7111C34.728 73.7017 39.4676 71.9609 48.3472 71.9609C51.2875 71.9756 54.2279 72.1365 57.1536 72.4729Z" fill="#F9F6EE"/>
<path d="M82.6669 61.2232C78.4977 55.2547 72.2659 51.0417 65.1711 49.4179L65.5514 46.5653C65.6246 45.9509 65.4637 45.3512 65.0979 44.8684C64.7176 44.3857 64.1763 44.0638 63.5766 43.9907C60.724 43.7274 60.9434 46.8579 60.6362 48.7742C53.2634 48.3208 45.9784 50.6906 40.2586 55.3864C34.5389 60.0821 30.8086 66.7528 29.7992 74.0817C28.863 81.2204 44.3985 85.5651 55.209 87.262L52.7368 106.221H57.3448L59.7439 87.8472C67.8042 88.7688 86.719 89.4417 87.6991 81.7032C88.6207 74.4766 86.8214 67.1916 82.6669 61.2232ZM43.9597 58.2828C47.5583 55.5619 51.8152 53.8796 56.2915 53.3969C52.5613 57.4636 49.6648 62.2179 47.7631 67.3964C43.7695 67.3233 39.7759 67.7914 35.8993 68.8154C37.5816 64.6316 40.3757 60.9891 43.9597 58.2828ZM55.8088 82.7272C41.3558 80.489 34.495 76.0712 34.3341 74.7107C34.729 73.7013 39.4687 71.9605 48.3482 71.9605C51.2886 71.9752 54.2289 72.1361 57.1546 72.4725L55.8088 82.7272ZM52.6198 67.5281C54.7263 62.4958 57.8861 57.9756 61.8797 54.2746H61.8943C64.7907 58.8826 66.6778 64.0611 67.3946 69.459C65.0394 68.9617 62.5672 68.5374 60.0511 68.201C57.8275 67.9084 55.2822 67.6744 52.6344 67.5281H52.6198ZM60.3437 83.3269L61.6895 73.0577C76.0547 75.2812 82.9302 79.6698 83.1642 81.1034C82.5645 82.42 74.8113 84.8922 60.3437 83.3269ZM72.0904 70.6001C71.593 65.0997 70.0278 59.7603 67.4678 54.8744C71.6808 56.4835 75.3526 59.219 78.132 62.7738C80.8968 66.3285 82.6376 70.5708 83.1935 75.0325C79.7119 73.0577 75.967 71.5656 72.0904 70.6001Z" fill="#CAAE5B"/>
</g>
<defs>
<clipPath id="clip0_170_1167">
<rect width="124.518" height="128" fill="white" transform="translate(0 0.5)"/>
</clipPath>
</defs>
</svg>
