<svg width="18" height="16" viewBox="0 0 18 16" fill="none" xmlns="http://www.w3.org/2000/svg">
<path d="M4.125 12.4062C4.539 12.4062 4.875 12.0702 4.875 11.6562C4.875 11.2423 4.539 10.9062 4.125 10.9062C2.67788 10.9062 1.5 9.72838 1.5 8.28125C1.5 6.83413 2.67788 5.65625 4.125 5.65625C4.2285 5.65625 4.3305 5.66412 4.43062 5.67575C4.63275 5.69825 4.83675 5.63938 4.99425 5.51C5.15175 5.38063 5.24963 5.192 5.26538 4.98875C5.415 3.05 7.05562 1.53125 9 1.53125C10.9444 1.53125 12.585 3.05 12.7346 4.98875C12.7504 5.192 12.8482 5.38025 13.0057 5.51C13.1636 5.63975 13.3676 5.69825 13.5694 5.67575C13.6699 5.66412 13.7715 5.65625 13.875 5.65625C15.3221 5.65625 16.5 6.83413 16.5 8.28125C16.5 9.72838 15.3221 10.9062 13.875 10.9062C13.461 10.9062 13.125 11.2423 13.125 11.6562C13.125 12.0702 13.461 12.4062 13.875 12.4062C16.1494 12.4062 18 10.5556 18 8.28125C18 6.09088 16.284 4.29387 14.1259 4.16412C13.6084 1.79713 11.4806 0.03125 9 0.03125C6.51937 0.03125 4.39162 1.79675 3.87412 4.16412C1.716 4.29425 0 6.09125 0 8.28125C0 10.5556 1.85063 12.4062 4.125 12.4062Z" fill="#29235C"/>
<path d="M9.00016 7.82812C8.58616 7.82812 8.25016 8.16413 8.25016 8.57812V13.4085L7.38953 12.5479C7.09666 12.255 6.62191 12.255 6.32903 12.5479C6.03616 12.8407 6.03616 13.3155 6.32903 13.6084L8.46991 15.7493C8.61653 15.8959 8.80816 15.969 9.00016 15.969C9.19216 15.969 9.38378 15.8959 9.53041 15.7493L11.6713 13.6084C11.9642 13.3155 11.9642 12.8407 11.6713 12.5479C11.3784 12.255 10.9037 12.255 10.6108 12.5479L9.75016 13.4085V8.57812C9.75016 8.16413 9.41416 7.82812 9.00016 7.82812Z" fill="#29235C"/>
</svg>
