<svg width="18" height="16" viewBox="0 0 18 16" fill="none" xmlns="http://www.w3.org/2000/svg">
<path d="M17.8373 7.24009C16.7967 4.9726 14.9253 3.19182 12.6087 2.26614C10.292 1.33967 7.70797 1.33967 5.39132 2.26614C3.07467 3.19182 1.20338 4.9724 0.162718 7.24009C-0.0542392 7.72382 -0.0542392 8.27665 0.162718 8.75956C1.2033 11.027 3.07467 12.8078 5.39132 13.7343C7.70797 14.66 10.292 14.66 12.6087 13.7343C14.9253 12.8079 16.7966 11.0273 17.8373 8.75956C18.0542 8.27663 18.0542 7.7238 17.8373 7.24009ZM16.6649 8.23004C15.7618 10.1955 14.1378 11.7392 12.1289 12.541C10.1201 13.3429 7.8799 13.3429 5.87098 12.541C3.86215 11.7391 2.23824 10.1955 1.33499 8.23004C1.2699 8.0838 1.2699 7.91587 1.33499 7.76961C2.23815 5.80416 3.86207 4.26132 5.87098 3.45866C7.87981 2.65674 10.12 2.65674 12.1289 3.45866C14.1378 4.26138 15.7617 5.8041 16.6649 7.76961C16.73 7.91585 16.73 8.08378 16.6649 8.23004ZM8.99994 4.1433C7.97703 4.1433 6.99592 4.5499 6.2727 5.27307C5.54953 5.99625 5.14293 6.97738 5.14293 8.00031C5.14293 9.02324 5.54953 10.0043 6.2727 10.7275C6.99588 11.4507 7.97701 11.8573 8.99994 11.8573C10.0229 11.8573 11.004 11.4507 11.7272 10.7275C12.4503 10.0044 12.8569 9.02324 12.8569 8.00031C12.8561 6.9774 12.4495 5.99709 11.7264 5.2739C11.0032 4.5507 10.0229 4.14411 8.99994 4.1433ZM8.99994 10.5716C7.96016 10.5716 7.02244 9.94482 6.62467 8.98461C6.22611 8.02357 6.44628 6.91707 7.18151 6.18188C7.91674 5.44665 9.0232 5.22648 9.98424 5.62504C10.9445 6.02279 11.5712 6.96051 11.5712 8.00031C11.5712 8.68251 11.3004 9.33659 10.8183 9.8187C10.3362 10.3008 9.68214 10.5716 8.99994 10.5716Z" fill="#29235C"/>
</svg>
