<svg width="22" height="20" viewBox="0 0 22 20" fill="none" xmlns="http://www.w3.org/2000/svg">
<path d="M2.43869 0C1.5552 0 0.823242 0.73219 0.823242 1.61545V11.3396V12.9828C0.823242 13.8661 1.5552 14.5982 2.43869 14.5982H8.51657V16.7703H5.60561C5.44167 16.7697 5.28419 16.8342 5.16781 16.9497C5.05143 17.0651 4.98568 17.2221 4.98503 17.386V19.3842C4.98568 19.5482 5.05143 19.7052 5.16781 19.8206C5.28419 19.9361 5.44167 20.0006 5.60561 20H17.0635C17.2268 19.9997 17.3834 19.9347 17.499 19.8193C17.6146 19.704 17.6798 19.5476 17.6805 19.3842V17.386C17.6798 17.2227 17.6146 17.0663 17.499 16.9509C17.3834 16.8356 17.2268 16.7706 17.0635 16.7703H14.1525V14.5982H20.2304C21.1139 14.5982 21.8422 13.8661 21.8422 12.9828V3.25747V1.61545C21.8422 0.73219 21.1139 0 20.2304 0H2.43869ZM2.43869 1.23634H20.2304C20.449 1.23634 20.6047 1.39437 20.6047 1.61545V3.25747V12.9828C20.6047 13.2039 20.449 13.3607 20.2304 13.3607H2.43869C2.2201 13.3607 2.05958 13.2039 2.05958 12.9828V11.3396V1.61545C2.05958 1.60167 2.06082 1.5877 2.06206 1.5744C2.08047 1.3749 2.23377 1.23634 2.43869 1.23634ZM7.54464 3.80561C7.38183 3.81544 7.22951 3.88922 7.12085 4.01086L4.59264 6.89043C4.49349 7.00326 4.43881 7.14832 4.43881 7.29852C4.43881 7.44872 4.49349 7.59378 4.59264 7.70661L7.12085 10.5862C7.22916 10.709 7.38178 10.7839 7.54522 10.7943C7.70865 10.8047 7.86955 10.7499 7.99257 10.6418C8.11593 10.534 8.19145 10.3816 8.20255 10.2181C8.21364 10.0547 8.1594 9.89352 8.05173 9.77004L5.87969 7.29614L8.05173 4.82828C8.1594 4.7048 8.21364 4.54363 8.20255 4.38018C8.19145 4.21673 8.11593 4.06437 7.99257 3.95656C7.86915 3.8489 7.70805 3.7946 7.54464 3.80561ZM15.1196 3.80561C14.9566 3.79492 14.796 3.84917 14.6729 3.95652C14.5503 4.06499 14.4756 4.21771 14.4654 4.38114C14.4553 4.54457 14.5103 4.70537 14.6186 4.82824L16.7906 7.29609L14.6186 9.76998C14.5103 9.89285 14.4553 10.0536 14.4654 10.2171C14.4756 10.3805 14.5503 10.5332 14.6729 10.6417C14.7959 10.7498 14.9568 10.8047 15.1203 10.7942C15.2837 10.7838 15.4363 10.709 15.5446 10.5861L18.0765 7.70656C18.1756 7.59373 18.2303 7.44867 18.2303 7.29847C18.2303 7.14827 18.1756 7.00321 18.0765 6.89038L15.5446 4.01083C15.4357 3.8889 15.2829 3.81513 15.1196 3.80561ZM12.9621 3.95411C12.8477 3.94747 12.7337 3.97274 12.6329 4.02711C12.5321 4.08147 12.4483 4.16279 12.391 4.26199L9.20598 9.71083C9.12391 9.85242 9.10135 10.0208 9.14322 10.179C9.18509 10.3372 9.28798 10.4723 9.42934 10.5548C9.57049 10.6371 9.73851 10.6603 9.89666 10.6191C10.0548 10.5779 10.1902 10.4758 10.2733 10.335L13.4595 4.88741C13.5011 4.81731 13.5283 4.7397 13.5398 4.65902C13.5512 4.57835 13.5466 4.49621 13.5262 4.41733C13.5057 4.33845 13.4699 4.26438 13.4208 4.19939C13.3716 4.1344 13.3101 4.07977 13.2398 4.03864C13.1552 3.98882 13.06 3.95985 12.9621 3.95411ZM9.75412 14.5982H12.9162V16.7703H9.75412V14.5982ZM6.22137 18.0066H9.13353H13.532H16.4429V18.7636H6.22137V18.0066Z" fill="#CAAE5B"/>
</svg>
