<svg width="78" height="56" viewBox="0 0 78 56" fill="none" xmlns="http://www.w3.org/2000/svg">
<g clip-path="url(#clip0_176_2021)">
<path d="M56.7331 23.6968L25.2561 53.1634C23.6363 54.6798 21.0109 54.6819 19.3876 53.1698L16.8961 50.8373C19.1417 47.7429 18.9388 43.632 16.3962 40.7466C13.4409 37.4231 8.2696 36.7513 4.4608 39.1963L3.02457 37.8518C1.41037 36.3343 1.4081 33.8819 3.02004 32.3634L34.4483 2.8332C36.0693 1.31785 38.6946 1.31785 40.319 2.83002L42.4331 4.8091C40.4879 8.09023 41.0139 12.1853 43.9102 14.8966L43.9317 14.9167C46.7849 17.5792 51.1831 18.1395 54.6938 16.2867L56.741 18.2032C58.3552 19.7238 58.353 22.1804 56.7342 23.6968H56.7331Z" fill="#F9F6EE"/>
<path d="M58.0219 17.002L55.468 14.6111C55.1551 14.3257 54.6699 14.2854 54.3095 14.5167C51.4642 16.3239 47.6475 15.9875 45.2114 13.7134L45.1944 13.6975C42.738 11.3979 42.3854 7.88334 44.325 5.15932C44.5676 4.82187 44.5222 4.37193 44.2196 4.08011L41.6021 1.62987C39.2659 -0.547649 35.4899 -0.543405 33.1593 1.63942L1.73677 31.1633C-0.581378 33.3471 -0.577977 36.8723 1.74131 39.0531L3.73526 40.9196C4.06852 41.2306 4.59903 41.2518 4.95951 40.9695C7.98501 38.6105 12.4807 38.9936 15.0018 41.8269C17.2032 44.3027 17.2032 47.8968 15.0018 50.3704C14.7003 50.7079 14.7241 51.2045 15.0551 51.5165L18.1044 54.371C20.4361 56.5464 24.2098 56.5432 26.5381 54.3647L58.0162 24.8971C60.3434 22.7174 60.3457 19.1858 58.023 17.002H58.0219ZM25.2561 53.1634C23.6362 54.6798 21.0109 54.6819 19.3876 53.1698L16.896 50.8373C19.1416 47.743 18.9387 43.632 16.3961 40.7467C13.4409 37.4231 8.26953 36.7514 4.46074 39.1963L3.02451 37.8518C1.4103 36.3343 1.40804 33.882 3.01997 32.3634L34.4482 2.83323C36.0692 1.31789 38.6945 1.31789 40.3189 2.83005L42.433 4.80913C40.4878 8.09027 41.0138 12.1853 43.9101 14.8966L43.9316 14.9168C46.7848 17.5792 51.1831 18.1395 54.6937 16.2867L56.741 18.2032C58.3552 19.7239 58.3529 22.1805 56.7342 23.6969L25.2561 53.1634Z" fill="#CAAE5B"/>
<path d="M25.9602 42.8159L14.018 31.6365C13.6644 31.3054 13.0896 31.3054 12.736 31.6365C12.3823 31.9676 12.3823 32.5056 12.736 32.8367L24.6781 44.0161C25.0318 44.3472 25.6065 44.3472 25.9602 44.0161C26.3139 43.685 26.3139 43.147 25.9602 42.8159Z" fill="#CAAE5B"/>
<path d="M28.3645 40.5652L16.4223 29.3858C16.0686 29.0547 15.4939 29.0547 15.1403 29.3858C14.7866 29.7168 14.7866 30.2549 15.1403 30.5859L27.0824 41.7654C27.4361 42.0964 28.0108 42.0964 28.3645 41.7654C28.7182 41.4343 28.7182 40.8963 28.3645 40.5652Z" fill="#29235C"/>
<path d="M36.7679 38.2264L36.345 37.8306L37.5285 36.7228C37.881 36.3747 37.8799 35.8271 37.524 35.4812L36.8268 34.8286L42.3575 29.6511L43.3074 30.5404C43.6543 30.8725 44.2222 30.8778 44.5759 30.5531C44.7765 30.3695 44.874 30.1096 44.8389 29.8485L43.1227 16.3186C43.0728 15.9292 42.744 15.6225 42.328 15.5768L27.8727 13.9724C27.3819 13.9161 26.9353 14.243 26.8752 14.7024C26.8412 14.9614 26.9387 15.2214 27.1382 15.4039L28.0893 16.2942L22.5586 21.4716L21.8603 20.818C21.4907 20.4858 20.907 20.4837 20.5351 20.8137L19.3517 21.9216L18.9289 21.5258C18.616 21.2064 18.0855 21.1841 17.7432 21.4769C17.7296 21.4886 17.7171 21.5003 17.7035 21.513L15.6393 23.4454C15.2992 23.7479 15.2856 24.2519 15.6086 24.5703C15.62 24.5809 15.6302 24.5915 15.6415 24.601L33.4805 41.3007C33.8024 41.6211 34.3409 41.6349 34.6832 41.3335C34.6946 41.324 34.7048 41.3134 34.7161 41.3028L36.7803 39.3704C37.1147 39.0701 37.1272 38.5734 36.8064 38.2604C36.7939 38.2477 36.7803 38.236 36.7667 38.2243L36.7679 38.2264ZM35.5425 33.6284L35.2217 33.3281L40.7524 28.1506L41.0732 28.451L35.5425 33.6284ZM31.8561 19.8215L26.3254 24.999L25.4435 24.1734L30.9742 18.9959L31.8561 19.8215ZM33.1382 21.0217L33.3785 21.2467L27.8478 26.4241L27.6075 26.1992L33.1382 21.0217ZM34.6617 22.4479L35.7839 23.4985L30.2532 28.6759L29.131 27.6254L34.6617 22.4479ZM37.066 24.6987L37.3063 24.9236L31.7756 30.1011L31.5353 29.8761L37.066 24.6987ZM38.5884 26.1249L39.4703 26.9505L33.9396 32.1279L33.0577 31.3023L38.5884 26.1249ZM41.4178 17.1739L42.7395 27.6094L30.2702 15.9366L41.4178 17.1739ZM29.3713 17.4954L29.6921 17.7958L24.1614 22.9732L23.8406 22.6729L29.3713 17.4954ZM21.1949 22.5975L35.623 36.1041L35.0618 36.6294L20.6338 23.1228L21.1949 22.5975ZM34.1006 39.4807L17.589 24.0238L18.3099 23.3489L34.8215 38.8058L34.1006 39.4807Z" fill="#CAAE5B"/>
<path d="M74.3737 23.6968L42.8968 53.1634C41.2769 54.6798 38.6515 54.6819 37.0283 53.1698L34.5367 50.8373C36.7823 47.7429 36.5794 43.632 34.0368 40.7466C31.0816 37.4231 25.9102 36.7513 22.1014 39.1963L20.6652 37.8518C19.051 36.3343 19.0487 33.8819 20.6607 32.3634L52.0889 2.8332C53.7099 1.31785 56.3352 1.31785 57.9596 2.83002L60.0737 4.8091C58.1285 8.09023 58.6545 12.1853 61.5508 14.8966L61.5723 14.9167C64.4255 17.5792 68.8238 18.1395 72.3344 16.2867L74.3817 18.2032C75.9959 19.7238 75.9936 22.1804 74.3749 23.6968H74.3737Z" fill="#F9F6EE"/>
<path d="M75.6625 17.002L73.1086 14.6111C72.7957 14.3257 72.3105 14.2854 71.9501 14.5167C69.1048 16.3239 65.2881 15.9875 62.852 13.7134L62.835 13.6975C60.3786 11.3979 60.026 7.88334 61.9656 5.15932C62.2082 4.82187 62.1628 4.37193 61.8602 4.08011L59.2427 1.62987C56.9065 -0.547649 53.1305 -0.543405 50.7999 1.63942L19.3774 31.1633C17.0592 33.3471 17.0626 36.8723 19.3819 39.0531L21.3759 40.9196C21.7091 41.2306 22.2397 41.2518 22.6001 40.9695C25.6256 38.6105 30.1214 38.9936 32.6424 41.8269C34.8438 44.3027 34.8438 47.8968 32.6424 50.3704C32.3409 50.7079 32.3647 51.2045 32.6957 51.5165L35.745 54.371C38.0767 56.5464 41.8504 56.5432 44.1788 54.3647L75.6557 24.8981C77.9829 22.7185 77.9852 19.1869 75.6625 17.003V17.002ZM42.8967 53.1634C41.2768 54.6798 38.6515 54.6819 37.0282 53.1698L34.5366 50.8373C36.7822 47.743 36.5793 43.632 34.0367 40.7467C31.0815 37.4231 25.9102 36.7514 22.1014 39.1963L20.6651 37.8518C19.0509 36.3343 19.0487 33.882 20.6606 32.3634L52.0888 2.83323C53.7098 1.31789 56.3351 1.31789 57.9595 2.83005L60.0737 4.80913C58.1285 8.09027 58.6544 12.1853 61.5507 14.8966L61.5722 14.9168C64.4254 17.5792 68.8237 18.1395 72.3343 16.2867L74.3816 18.2032C75.9958 19.7239 75.9935 22.1805 74.3748 23.6969L42.8978 53.1634H42.8967Z" fill="#CAAE5B"/>
<path d="M43.6008 42.8162L31.6587 31.6367C31.305 31.3057 30.7303 31.3057 30.3766 31.6367C30.0229 31.9678 30.0229 32.5058 30.3766 32.8369L42.3187 44.0163C42.6724 44.3474 43.2471 44.3474 43.6008 44.0163C43.9545 43.6853 43.9545 43.1472 43.6008 42.8162Z" fill="#CAAE5B"/>
<path d="M46.0071 40.5652L34.0649 29.3858C33.7112 29.0547 33.1365 29.0547 32.7828 29.3858C32.4292 29.7168 32.4292 30.2549 32.7828 30.5859L44.725 41.7654C45.0787 42.0964 45.6534 42.0964 46.0071 41.7654C46.3607 41.4343 46.3607 40.8963 46.0071 40.5652Z" fill="#29235C"/>
<path d="M54.4085 38.2264L53.9857 37.8306L55.1691 36.7228C55.5217 36.3747 55.5205 35.8271 55.1646 35.4812L54.4674 34.8286L59.9981 29.6511L60.9481 30.5404C61.2949 30.8725 61.8628 30.8778 62.2165 30.5531C62.4172 30.3695 62.5146 30.1096 62.4795 29.8485L60.7633 16.3186C60.7134 15.9292 60.3847 15.6225 59.9687 15.5768L45.5134 13.9724C45.0225 13.9161 44.5759 14.243 44.5158 14.7024C44.4818 14.9614 44.5793 15.2214 44.7788 15.4039L45.7299 16.2942L40.1992 21.4716L39.5009 20.818C39.1314 20.4858 38.5476 20.4837 38.1758 20.8137L36.9923 21.9216L36.5695 21.5258C36.2566 21.2064 35.7261 21.1841 35.3838 21.4769C35.3702 21.4886 35.3577 21.5003 35.3441 21.513L33.2799 23.4454C32.9398 23.7479 32.9262 24.2519 33.2493 24.5703C33.2606 24.5809 33.2708 24.5915 33.2821 24.601L51.1211 41.3007C51.4431 41.6211 51.9815 41.6349 52.3239 41.3335C52.3352 41.324 52.3454 41.3134 52.3567 41.3028L54.421 39.3704C54.7554 39.0701 54.7678 38.5734 54.447 38.2604C54.4346 38.2477 54.421 38.236 54.4074 38.2243L54.4085 38.2264ZM53.1831 33.6284L52.8623 33.3281L58.393 28.1506L58.7138 28.451L53.1831 33.6284ZM49.4967 19.8215L43.966 24.999L43.0841 24.1734L48.6148 18.9959L49.4967 19.8215ZM50.7788 21.0217L51.0191 21.2467L45.4884 26.4241L45.2481 26.1992L50.7788 21.0217ZM52.3023 22.4479L53.4246 23.4985L47.8939 28.6759L46.7716 27.6254L52.3023 22.4479ZM54.7066 24.6987L54.9469 24.9236L49.4162 30.1011L49.1759 29.8761L54.7066 24.6987ZM56.229 26.1249L57.1109 26.9505L51.5802 32.1279L50.6983 31.3023L56.229 26.1249ZM59.0584 17.1739L60.3801 27.6094L47.9109 15.9366L59.0584 17.1739ZM47.0119 17.4954L47.3327 17.7958L41.8021 22.9732L41.4813 22.6729L47.0119 17.4954ZM38.8355 22.5975L53.2636 36.1041L52.7025 36.6294L38.2744 23.1228L38.8355 22.5975ZM51.7412 39.4807L35.2296 24.0238L35.9506 23.3489L52.4622 38.8058L51.7412 39.4807Z" fill="#CAAE5B"/>
</g>
<defs>
<clipPath id="clip0_176_2021">
<rect width="77.4035" height="56" fill="white"/>
</clipPath>
</defs>
</svg>
