<svg width="320" height="83" viewBox="0 0 320 83" fill="none" xmlns="http://www.w3.org/2000/svg">
<g clip-path="url(#clip0_176_2171)">
<path d="M105.172 25.1266H98.7725V57.8733H105.172V25.1266Z" fill="white"/>
<path d="M150.933 45.2866L146.453 32.3799L141.759 45.2866H150.933ZM143.573 25.1266H149.226L161.706 57.8733H155.199L152.106 49.66H140.693L137.706 57.8733H131.199L143.573 25.1266Z" fill="white"/>
<path d="M176.319 41.3399H183.679C184.852 41.3399 185.812 40.9132 186.559 39.9532C187.306 38.9932 187.732 37.7132 187.732 36.1132C187.732 35.2599 187.626 34.5132 187.412 33.8732C187.199 33.2332 186.879 32.6999 186.452 32.1666C186.026 31.7399 185.599 31.3132 185.066 31.0999C184.532 30.8866 183.999 30.7799 183.466 30.7799H176.319V41.3399ZM169.919 57.8732V25.1266H183.786C185.279 25.1266 186.666 25.4466 187.946 26.0866C189.226 26.7266 190.292 27.5799 191.252 28.5399C192.212 29.6066 192.852 30.7799 193.386 32.0599C193.919 33.3399 194.132 34.7266 194.132 36.0066C194.132 37.3932 193.919 38.7799 193.386 40.0599C192.852 41.3399 192.212 42.5132 191.359 43.5799C190.506 44.6466 189.439 45.3932 188.159 46.0332C186.879 46.6732 185.492 46.9932 183.999 46.9932H176.212V57.9799L169.919 57.8732Z" fill="white"/>
<path d="M209.707 41.3399H217.707C218.24 41.3399 218.88 41.2333 219.307 40.9133C219.84 40.5933 220.267 40.2733 220.587 39.7399C220.907 39.3133 221.227 38.6733 221.44 38.0333C221.653 37.3933 221.76 36.6466 221.76 36.0066C221.76 35.2599 221.653 34.5133 221.44 33.8733C221.227 33.2333 220.907 32.6999 220.48 32.1666C220.053 31.7399 219.627 31.3133 219.093 31.0999C218.56 30.8866 218.027 30.6733 217.493 30.6733H209.813V41.3399H209.707ZM203.307 57.8733V25.1266H217.813C219.307 25.1266 220.693 25.4466 221.973 26.0866C223.253 26.7266 224.32 27.5799 225.28 28.5399C226.24 29.6066 226.88 30.7799 227.413 32.0599C227.947 33.3399 228.16 34.7266 228.16 36.0066C228.16 38.1399 227.627 40.0599 226.56 41.7666C225.493 43.4733 224.107 44.7533 222.293 45.4999L229.76 57.8733H222.613L215.893 46.8866H209.6V57.8733H203.307Z" fill="white"/>
<path d="M254.826 45.2866L250.239 32.3799L245.546 45.2866H254.826ZM247.466 25.1266H253.119L265.599 57.8733H259.093L255.999 49.66H244.586L241.599 57.8733H235.093L247.466 25.1266Z" fill="white"/>
<path d="M280.213 25.1266H273.813V57.8733H280.213V25.1266Z" fill="white"/>
<path d="M297.919 36.8599V57.8733H291.626V25.1266H296.533L313.599 46.6733V25.1266H319.999V57.8733H314.879L297.919 36.8599Z" fill="white"/>
<path d="M118.825 57.8733H126.505L112.852 41.5533L126.612 25.1266H118.932L105.172 41.5533L118.825 57.8733Z" fill="white"/>
<path d="M50.3471 27.8997C50.1338 27.4731 49.9204 27.1531 49.6004 26.8331C49.0671 26.1931 48.4271 25.6597 47.6804 25.3397C46.9338 25.0197 46.1871 24.8064 45.4404 24.8064H44.8004L29.4404 41.4464L52.4804 66.513H60.9071L37.8671 41.4464L50.3471 27.8997Z" fill="white"/>
<path d="M29.5465 16.3798H23.1465V66.5131H29.5465V16.3798Z" fill="white"/>
<path d="M59.7329 26.6199C58.9863 24.6999 57.9196 22.9932 56.5329 21.4999C55.1463 20.0066 53.5463 18.7266 51.7329 17.8732C49.9196 16.9132 47.7862 16.4866 45.6529 16.4866H33.1729V22.1399H45.3329C46.5062 22.1399 47.6796 22.3532 48.8529 22.8866C49.9196 23.4199 50.8796 24.1666 51.7329 25.1266C52.5862 26.0866 53.2263 27.1532 53.7596 28.4332C54.2929 29.7132 54.5063 31.0999 54.5063 32.4866C54.5063 33.8732 54.2929 35.2599 53.8663 36.5399C53.4396 37.8199 52.7996 38.8866 52.0529 39.9532C51.3062 40.9132 50.3462 41.6599 49.2796 42.1932C48.2129 42.7266 47.0396 43.0466 45.7596 43.0466H44.2662L49.0662 48.3799C50.1329 48.1666 51.1996 47.8466 52.1596 47.3132C53.9729 46.4599 55.5729 45.1799 56.8529 43.6866C58.1329 42.1932 59.1996 40.4866 59.8396 38.5666C60.5863 36.6466 60.9063 34.6199 60.9063 32.5932C60.9063 30.4599 60.4796 28.4332 59.7329 26.6199Z" fill="white"/>
<path d="M41.0667 6.03334C21.5467 6.03334 5.65333 21.9267 5.65333 41.4467C5.65333 61.0733 21.5467 76.9667 41.1733 76.9667C60.8 76.9667 76.6933 61.0733 76.6933 41.4467C76.5867 21.9267 60.6933 6.03334 41.0667 6.03334ZM41.0667 82.62C18.4533 82.62 0 64.1667 0 41.4467C0 18.8333 18.4533 0.380005 41.0667 0.380005C63.7867 0.380005 82.1333 18.8333 82.1333 41.4467C82.24 64.1667 63.7867 82.62 41.0667 82.62Z" fill="white"/>
</g>
<defs>
<clipPath id="clip0_176_2171">
<rect width="320" height="82.24" fill="white" transform="translate(0 0.380005)"/>
</clipPath>
</defs>
</svg>
