<svg width="200" height="35" viewBox="0 0 200 35" fill="none" xmlns="http://www.w3.org/2000/svg">
<g clip-path="url(#clip0_176_2186)">
<path d="M4.81346 25.5719H0V0.839844H4.81346" fill="#262261"/>
<path d="M39.4161 16.0146L35.9963 6.28077L32.4374 16.0146H39.4144H39.4161ZM33.8685 0.806152H38.1241L47.5443 25.572H42.5901L40.2876 19.3988H31.6373L29.3704 25.572H24.418L33.8685 0.806152Z" fill="#262261"/>
<path d="M58.5672 13.0492H64.1487C65.0327 13.0492 65.7705 12.691 66.3639 11.9692C66.9573 11.2475 67.2532 10.2709 67.2532 9.03768C67.2532 8.4086 67.1605 7.84546 66.9734 7.34469C66.788 6.84391 66.5421 6.42156 66.2409 6.07405C65.9398 5.72475 65.5851 5.461 65.177 5.28814C64.7707 5.11349 64.3572 5.02795 63.9385 5.02795H58.5672V13.0492ZM53.752 25.572V0.806152H64.2521C65.3927 0.806152 66.4441 1.04495 67.4082 1.52078C68.3723 1.99838 69.2063 2.62568 69.9032 3.40446C70.6 4.18502 71.1471 5.06716 71.5427 6.05623C71.9383 7.04529 72.1361 8.03971 72.1361 9.03768C72.1361 10.0357 71.9508 11.1031 71.5783 12.0904C71.2076 13.0795 70.6837 13.9581 70.0083 14.7244C69.3347 15.4907 68.5202 16.1073 67.5668 16.5724C66.6134 17.0375 65.5673 17.271 64.4285 17.271H58.5672V25.572H53.7537H53.752Z" fill="#262261"/>
<path d="M83.7879 13.0492H89.8221C90.2641 13.0492 90.6775 12.9458 91.0607 12.7355C91.4456 12.527 91.7771 12.2419 92.0551 11.8801C92.3349 11.5202 92.5558 11.096 92.7198 10.6059C92.882 10.1194 92.9622 9.59548 92.9622 9.0359C92.9622 8.47632 92.8695 7.92031 92.6859 7.43201C92.4988 6.94193 92.2493 6.51957 91.9357 6.15781C91.622 5.79604 91.262 5.51803 90.8557 5.32022C90.4476 5.12419 90.0342 5.02617 89.6171 5.02617H83.7915V13.0474L83.7879 13.0492ZM78.9727 25.572V0.806152H89.9272C91.066 0.806152 92.1192 1.04495 93.0833 1.52078C94.0492 1.99838 94.8815 2.62568 95.5783 3.40446C96.2751 4.18502 96.8204 5.06716 97.2178 6.05623C97.6134 7.04529 97.8113 8.03971 97.8113 9.03768C97.8113 10.6434 97.4103 12.1011 96.6083 13.4145C95.8046 14.7297 94.7193 15.676 93.3471 16.2588L98.9981 25.5702H93.5895L88.5318 17.2692H83.7879V25.5702H78.9727V25.572Z" fill="#262261"/>
<path d="M117.869 16.0146L114.449 6.28077L110.892 16.0146H117.869ZM112.321 0.806152H116.577L125.994 25.572H121.041L118.739 19.3988H110.088L107.82 25.572H102.867L112.321 0.806152Z" fill="#262261"/>
<path d="M137.017 0.806152H132.203V25.572H137.017V0.806152Z" fill="#262261"/>
<path d="M150.483 9.70063V25.572H145.67V0.806152H149.402L162.308 17.0607V0.840012H167.123V25.572H163.215L150.483 9.70063Z" fill="#262261"/>
<path d="M15.1719 25.572H20.9762L10.6168 13.206L21.01 0.806152H15.2075L4.8125 13.2078L15.1719 25.572Z" fill="#262261"/>
<path d="M200 31.5063H132.203V34.1938H200V31.5063Z" fill="#CBAE5B"/>
<path d="M175.28 19.2903V19.8428C175.28 20.9993 175.503 21.8957 175.95 22.5355C176.397 23.1753 177.032 23.4943 177.855 23.4943C178.52 23.4943 179.09 23.3624 179.562 23.1004C180.035 22.8385 180.56 22.3644 181.138 21.6819C181.294 21.4894 181.487 21.3932 181.715 21.3932C182.013 21.3932 182.367 21.4983 182.779 21.7086C183.191 21.9189 183.606 22.2076 184.026 22.5747C183.344 23.7652 182.472 24.6455 181.412 25.214C180.352 25.7825 179.053 26.0676 177.511 26.0676C176.303 26.0676 175.23 25.8092 174.293 25.2924C173.355 24.7756 172.628 24.0539 172.113 23.1254C171.596 22.1969 171.338 21.1294 171.338 19.9212C171.338 18.1177 171.657 16.5512 172.297 15.22C172.936 13.8887 173.851 12.8694 175.041 12.1601C176.232 11.4508 177.641 11.0962 179.27 11.0962C181.23 11.0962 182.663 11.5471 183.565 12.4488C184.467 13.3506 184.918 14.7727 184.918 16.7169C184.918 17.3834 184.83 18.2406 184.656 19.2903H175.278H175.28ZM176.909 14.484C176.296 15.097 175.848 15.9631 175.569 17.0841H181.111C181.163 16.6813 181.189 16.3142 181.189 15.9809C181.189 14.3699 180.507 13.5644 179.14 13.5644C178.263 13.5644 177.52 13.8709 176.907 14.484H176.909Z" fill="#CBAE5B"/>
<path d="M190.764 22.0221C190.729 22.3019 190.713 22.4944 190.713 22.5995C190.713 23.0023 190.805 23.2874 190.989 23.4532C191.172 23.6189 191.475 23.7027 191.894 23.7027C192.507 23.7027 193.19 23.5547 193.944 23.2553C194.259 23.3783 194.416 23.6492 194.416 24.0698C194.416 24.4903 194.259 24.8236 193.944 25.1212C193.628 25.401 193.142 25.6291 192.486 25.8037C191.83 25.9784 191.107 26.0657 190.319 26.0657C189.234 26.0657 188.371 25.7859 187.731 25.2246C187.091 24.665 186.772 23.9112 186.772 22.9649C186.772 22.8419 186.79 22.6405 186.824 22.3607L188.032 13.8245H185.826L186.168 11.3562H188.375L188.925 7.41602H192.812L192.26 11.3562H194.992L194.649 13.8245H191.917L190.761 22.0203L190.764 22.0221Z" fill="#CBAE5B"/>
</g>
<defs>
<clipPath id="clip0_176_2186">
<rect width="200" height="33.3877" fill="white" transform="translate(0 0.806152)"/>
</clipPath>
</defs>
</svg>
