<svg width="155" height="129" viewBox="0 0 155 129" fill="none" xmlns="http://www.w3.org/2000/svg">
<path d="M150.459 65H143.241V60.4134C143.241 58.1526 141.407 56.315 139.15 56.315H128.846C126.589 56.315 124.75 58.1526 124.75 60.4134V74.8448H119.282C119.471 73.1815 119.6 71.5083 119.6 69.8251C119.6 56.643 113.81 44.7957 104.649 36.6787L108.69 19.2985C109.858 14.2787 108.998 9.62255 106.274 6.18654C103.371 2.52131 98.5197 0.499512 92.624 0.499512L58.2514 0.504493C52.3512 0.504493 47.4998 2.5263 44.5975 6.19152C41.8736 9.62766 41.0186 14.284 42.1818 19.3035L46.228 36.6837C37.072 44.796 31.2812 56.6429 31.2812 69.825C31.2812 84.8046 38.7572 98.6483 51.2836 106.866L51.4625 106.986C52.9935 107.992 55.5634 109.685 60.7974 109.685H90.0902C95.3095 109.685 97.8793 108.002 99.4102 106.996L99.6041 106.866C105.648 102.902 110.634 97.4739 114.118 91.1444H124.75V105.576C124.75 107.842 126.59 109.684 128.846 109.684H139.151C141.407 109.684 143.242 107.842 143.242 105.576V100.994H150.459C152.716 100.994 154.555 99.1517 154.555 96.8907V69.0975C154.555 66.8367 152.715 65 150.459 65ZM46.0592 18.4025C45.1745 14.5928 45.761 11.1418 47.7145 8.67175C49.8519 5.97262 53.5948 4.48868 58.2574 4.48868H92.63C97.2876 4.48868 101.03 5.97275 103.163 8.66678C105.116 11.1319 105.703 14.5879 104.818 18.3975L101.209 33.9254C99.6486 32.7999 98.0232 31.7641 96.3233 30.8477L98.759 19.3191C99.1964 17.2475 99.5791 14.2396 97.8593 12.1182C96.726 10.7188 94.9565 10.0118 92.5953 10.0118L58.2978 10.0167C55.9317 10.0167 54.1622 10.7239 53.0289 12.1232C51.314 14.2447 51.6967 17.2475 52.1342 19.3241L54.5649 30.8527C52.865 31.769 51.2345 32.8048 49.6788 33.9303L46.0592 18.4025ZM58.2523 29.0745L56.0205 18.5021C55.6029 16.525 55.6327 15.2253 56.1149 14.6326C56.5374 14.1097 57.5365 14.0002 58.297 14.0002H92.5894C93.3499 14.0002 94.3441 14.1097 94.7665 14.6326C95.2437 15.2252 95.2785 16.525 94.861 18.5021L92.6292 29.0795C87.3454 26.8336 81.5345 25.5885 75.4403 25.5885C69.3462 25.5835 63.5413 26.8285 58.2523 29.0745ZM53.6395 103.654L53.4556 103.534C42.0628 96.0545 35.2576 83.4553 35.2576 69.8258C35.2576 47.6253 53.2812 29.5682 75.4405 29.5682C97.5997 29.5682 115.623 47.6253 115.623 69.8258C115.623 71.509 115.484 73.1822 115.28 74.8455H103.629C104.017 72.9432 104.231 70.9961 104.231 69.029C104.231 53.1225 91.3173 40.1801 75.4404 40.1801C59.5635 40.1801 46.6451 53.1225 46.6451 69.029C46.6451 78.7947 51.5213 87.823 59.7582 93.2169C60.0763 93.4261 60.4988 93.7 61.0356 93.9739V96.8922C61.0356 99.153 62.8698 100.996 65.1264 100.996H72.3439V105.577C72.3439 105.617 72.3588 105.657 72.3588 105.702H60.7921C56.7509 105.702 54.9518 104.52 53.6395 103.654ZM72.3439 96.9857L65.0121 96.8911L65.1265 68.9831H72.3439L72.3439 96.9857ZM76.3204 105.576L76.4348 60.2982L86.8583 60.4127L86.7439 105.696H76.5043C76.4645 105.641 76.4248 105.576 76.3204 105.576ZM86.7439 56.3142H76.4347C74.1781 56.3142 72.3439 58.1518 72.3439 60.4126V64.9992H65.1264C62.8698 64.9992 61.0356 66.8368 61.0356 69.0976V89.2162C54.5141 84.545 50.622 77.0951 50.622 69.0275C50.622 55.3126 61.7563 44.1626 75.4408 44.1626C89.1252 44.1626 100.254 55.3177 100.254 69.0275C100.254 70.9996 100.016 72.9517 99.5585 74.8441H90.8299V60.4126C90.8349 58.1518 89.0006 56.3142 86.7439 56.3142ZM97.4309 103.529L97.2271 103.658C95.9993 104.46 94.3292 105.531 90.8249 105.67C90.8249 105.635 90.8348 105.61 90.8348 105.575V91.144H109.515C106.428 96.0841 102.307 100.332 97.4309 103.529ZM90.8348 87.1646V78.8281H124.749V87.1646H90.8348ZM139.265 105.575C139.265 105.645 139.205 105.699 139.15 105.699L128.727 105.575L128.846 60.2969L139.26 60.4114L139.265 105.575ZM150.459 97.0144H143.241L143.236 69.007L150.578 69.0966L150.459 97.0144Z" fill="#F9F6EE"/>
<path d="M53.6395 103.654L53.4556 103.534C42.0628 96.0545 35.2576 83.4553 35.2576 69.8258C35.2576 47.6253 53.2812 29.5682 75.4405 29.5682C97.5997 29.5682 115.623 47.6253 115.623 69.8258C115.623 71.509 115.484 73.1822 115.28 74.8455H103.629C104.017 72.9432 104.231 70.9961 104.231 69.029C104.231 53.1225 91.3173 40.1801 75.4404 40.1801C59.5635 40.1801 46.6451 53.1225 46.6451 69.029C46.6451 78.7947 51.5213 87.823 59.7582 93.2169C60.0763 93.4261 60.4988 93.7 61.0356 93.9739V96.8922C61.0356 99.153 62.8698 100.996 65.1264 100.996H72.3439V105.577C72.3439 105.617 72.3588 105.657 72.3588 105.702H60.7921C56.7509 105.702 54.9518 104.52 53.6395 103.654Z" fill="#F9F6EE"/>
<path d="M46.0592 18.4025C45.1745 14.5928 45.761 11.1418 47.7145 8.67175C49.8519 5.97262 53.5948 4.48868 58.2574 4.48868H92.63C97.2876 4.48868 101.03 5.97275 103.163 8.66678C105.116 11.1319 105.703 14.5879 104.818 18.3975L101.209 33.9254C99.6486 32.7999 98.0232 31.7641 96.3233 30.8477L98.759 19.3191C99.1964 17.2475 99.5791 14.2396 97.8593 12.1182C96.726 10.7188 94.9565 10.0118 92.5953 10.0118L58.2978 10.0167C55.9317 10.0167 54.1622 10.7239 53.0289 12.1232C51.314 14.2447 51.6967 17.2475 52.1342 19.3241L54.5649 30.8527C52.865 31.769 51.2345 32.8048 49.6788 33.9303L46.0592 18.4025Z" fill="#F9F6EE"/>
<path d="M90.8348 87.1646V78.8281H124.749V87.1646H90.8348Z" fill="#F9F6EE"/>
<path d="M97.4309 103.529L97.2271 103.658C95.9993 104.46 94.3292 105.531 90.8249 105.67C90.8249 105.635 90.8348 105.61 90.8348 105.575V91.144H109.515C106.428 96.0841 102.307 100.332 97.4309 103.529Z" fill="#F9F6EE"/>
<path d="M139.265 105.575C139.265 105.645 139.205 105.699 139.15 105.699L128.727 105.575L128.846 60.2969L139.26 60.4114L139.265 105.575Z" fill="#F9F6EE"/>
<path d="M150.459 97.0144H143.241L143.236 69.007L150.578 69.0966L150.459 97.0144Z" fill="#F9F6EE"/>
<path d="M150.459 65H143.241V60.4134C143.241 58.1526 141.407 56.315 139.15 56.315H128.846C126.589 56.315 124.75 58.1526 124.75 60.4134V74.8448H119.282C119.471 73.1815 119.6 71.5083 119.6 69.8251C119.6 56.643 113.81 44.7957 104.649 36.6787L108.69 19.2985C109.858 14.2787 108.998 9.62255 106.274 6.18654C103.371 2.52131 98.5197 0.499512 92.624 0.499512L58.2514 0.504493C52.3512 0.504493 47.4998 2.5263 44.5975 6.19152C41.8736 9.62766 41.0186 14.284 42.1818 19.3035L46.228 36.6837C37.072 44.796 31.2812 56.6429 31.2812 69.825C31.2812 84.8046 38.7572 98.6483 51.2836 106.866L51.4625 106.986C52.9935 107.992 55.5634 109.685 60.7974 109.685H90.0902C95.3095 109.685 97.8793 108.001 99.4102 106.996L99.6041 106.866C105.648 102.902 110.634 97.4739 114.118 91.1444H124.75V105.576C124.75 107.842 126.59 109.684 128.846 109.684H139.151C141.407 109.684 143.242 107.842 143.242 105.576V100.994H150.459C152.716 100.994 154.555 99.1517 154.555 96.8907V69.0975C154.555 66.8367 152.715 65 150.459 65ZM46.0592 18.4025C45.1745 14.5928 45.761 11.1418 47.7145 8.67175C49.8519 5.97262 53.5948 4.48868 58.2574 4.48868H92.63C97.2876 4.48868 101.03 5.97275 103.163 8.66678C105.116 11.1319 105.703 14.5879 104.818 18.3975L101.209 33.9254C99.6486 32.7999 98.0232 31.7641 96.3233 30.8477L98.759 19.3191C99.1964 17.2475 99.5791 14.2396 97.8593 12.1182C96.726 10.7188 94.9565 10.0118 92.5953 10.0118L58.2978 10.0167C55.9317 10.0167 54.1622 10.7239 53.0289 12.1232C51.314 14.2447 51.6967 17.2475 52.1342 19.3241L54.5649 30.8527C52.865 31.769 51.2345 32.8048 49.6788 33.9303L46.0592 18.4025ZM58.2523 29.0745L56.0205 18.5021C55.6029 16.525 55.6327 15.2253 56.1149 14.6326C56.5374 14.1097 57.5365 14.0002 58.297 14.0002H92.5894C93.3499 14.0002 94.3441 14.1097 94.7665 14.6326C95.2437 15.2252 95.2785 16.525 94.861 18.5021L92.6291 29.0795C87.3454 26.8336 81.5345 25.5885 75.4403 25.5885C69.3462 25.5835 63.5413 26.8285 58.2523 29.0745ZM53.6395 103.654L53.4556 103.534C42.0628 96.0545 35.2576 83.4553 35.2576 69.8258C35.2576 47.6253 53.2812 29.5682 75.4405 29.5682C97.5997 29.5682 115.623 47.6253 115.623 69.8258C115.623 71.509 115.484 73.1822 115.28 74.8455H103.629C104.017 72.9432 104.231 70.9961 104.231 69.029C104.231 53.1225 91.3173 40.1801 75.4404 40.1801C59.5635 40.1801 46.6451 53.1225 46.6451 69.029C46.6451 78.7947 51.5213 87.823 59.7582 93.2169C60.0763 93.4261 60.4988 93.7 61.0356 93.9739V96.8922C61.0356 99.153 62.8698 100.996 65.1264 100.996H72.3439V105.577C72.3439 105.617 72.3588 105.657 72.3588 105.702H60.7921C56.7509 105.702 54.9518 104.52 53.6395 103.654ZM72.3439 96.9857L65.0121 96.8911L65.1265 68.9831H72.3439L72.3439 96.9857ZM76.3204 105.576L76.4348 60.2982L86.8583 60.4127L86.7439 105.696H76.5043C76.4645 105.641 76.4248 105.576 76.3204 105.576ZM86.7439 56.3142H76.4347C74.1781 56.3142 72.3439 58.1518 72.3439 60.4126V64.9992H65.1264C62.8698 64.9992 61.0356 66.8368 61.0356 69.0976V89.2162C54.5141 84.545 50.622 77.0951 50.622 69.0275C50.622 55.3126 61.7563 44.1626 75.4408 44.1626C89.1252 44.1626 100.254 55.3177 100.254 69.0275C100.254 70.9996 100.016 72.9517 99.5585 74.8441H90.8299V60.4126C90.8349 58.1518 89.0006 56.3142 86.7439 56.3142ZM97.4309 103.529L97.2271 103.658C95.9993 104.46 94.3292 105.531 90.8249 105.67C90.8249 105.635 90.8348 105.61 90.8348 105.575V91.144H109.515C106.428 96.0841 102.307 100.332 97.4309 103.529ZM90.8348 87.1646V78.8281H124.749V87.1646H90.8348ZM139.265 105.575C139.265 105.645 139.205 105.699 139.15 105.699L128.727 105.575L128.846 60.2969L139.26 60.4114L139.265 105.575ZM150.459 97.0144H143.241L143.236 69.007L150.578 69.0966L150.459 97.0144Z" fill="#CAAE5B"/>
<path d="M80.7574 124.109C80.7574 124.567 80.3841 124.941 79.9257 124.941H5.05823C4.5998 124.941 4.2265 124.567 4.2265 124.109V77.0992C4.2265 76.6408 4.5998 76.2675 5.05823 76.2675H79.9257C80.3841 76.2675 80.7574 76.6408 80.7574 77.0992V124.109Z" fill="#F9F6EE"/>
<path d="M31.3826 103.179C32.8953 101.607 33.827 99.4712 33.827 97.1219V93.6397C33.827 88.8183 29.9041 84.8955 25.0827 84.8955C20.2613 84.8955 16.3388 88.8183 16.3388 93.6397V97.1219C16.3388 99.4708 17.2701 101.606 18.7824 103.179C14.2368 104.518 11.1143 107.258 11.1143 110.413V114.533C11.1143 115.516 11.9112 116.313 12.8941 116.313C13.877 116.313 14.6739 115.516 14.6739 114.533V110.413C14.6739 108.603 18.8248 105.866 25.0814 105.866C31.3385 105.866 35.4894 108.603 35.4894 110.413V114.533C35.4894 115.516 36.2863 116.313 37.2692 116.313C38.252 116.313 39.049 115.516 39.049 114.533V110.413C39.049 107.258 35.9274 104.518 31.3826 103.179ZM30.2674 97.1219C30.2674 99.9806 27.9414 102.307 25.0827 102.307C22.224 102.307 19.8986 99.9806 19.8986 97.1219V93.6397C19.8986 90.781 22.224 88.455 25.0827 88.455C27.9414 88.455 30.2674 90.781 30.2674 93.6397V97.1219Z" fill="#F9F6EE"/>
<path d="M70.3494 88.3784H47.7154C46.7326 88.3784 45.9355 89.1753 45.9355 90.1583C45.9355 91.1411 46.7326 91.938 47.7154 91.938H70.3494C71.3322 91.938 72.1291 91.1411 72.1291 90.1583C72.1291 89.1753 71.3322 88.3784 70.3494 88.3784Z" fill="#F9F6EE"/>
<path d="M70.3494 97.0835H47.7154C46.7326 97.0835 45.9355 97.8804 45.9355 98.8634C45.9355 99.8462 46.7326 100.643 47.7154 100.643H70.3494C71.3322 100.643 72.1291 99.8462 72.1291 98.8634C72.1291 97.8804 71.3322 97.0835 70.3494 97.0835Z" fill="#F9F6EE"/>
<path d="M61.6443 105.789H47.7154C46.7326 105.789 45.9355 106.586 45.9355 107.569C45.9355 108.552 46.7326 109.349 47.7154 109.349H61.6443C62.6272 109.349 63.4241 108.552 63.4241 107.569C63.4241 106.586 62.6272 105.789 61.6443 105.789Z" fill="#F9F6EE"/>
<path d="M79.9257 72.708H5.05823C2.6371 72.708 0.666992 74.6781 0.666992 77.0992V124.109C0.666992 126.53 2.6371 128.5 5.05823 128.5H79.9257C82.3468 128.5 84.3169 126.53 84.3169 124.109V77.0992C84.3169 74.6781 82.3468 72.708 79.9257 72.708ZM80.7574 124.109C80.7574 124.567 80.3841 124.941 79.9257 124.941H5.05823C4.5998 124.941 4.2265 124.567 4.2265 124.109V77.0992C4.2265 76.6408 4.5998 76.2675 5.05823 76.2675H79.9257C80.3841 76.2675 80.7574 76.6408 80.7574 77.0992V124.109Z" fill="#CAAE5B"/>
<path d="M31.3826 103.179C32.8953 101.607 33.827 99.4712 33.827 97.1219V93.6397C33.827 88.8183 29.9041 84.8955 25.0827 84.8955C20.2613 84.8955 16.3388 88.8183 16.3388 93.6397V97.1219C16.3388 99.4708 17.2701 101.606 18.7824 103.179C14.2368 104.518 11.1143 107.258 11.1143 110.413V114.533C11.1143 115.516 11.9112 116.313 12.8941 116.313C13.877 116.313 14.6739 115.516 14.6739 114.533V110.413C14.6739 108.603 18.8248 105.866 25.0814 105.866C31.3385 105.866 35.4894 108.603 35.4894 110.413V114.533C35.4894 115.516 36.2863 116.313 37.2692 116.313C38.252 116.313 39.049 115.516 39.049 114.533V110.413C39.049 107.258 35.9274 104.518 31.3826 103.179ZM30.2674 97.1219C30.2674 99.9806 27.9414 102.307 25.0827 102.307C22.224 102.307 19.8986 99.9806 19.8986 97.1219V93.6397C19.8986 90.781 22.224 88.455 25.0827 88.455C27.9414 88.455 30.2674 90.781 30.2674 93.6397V97.1219Z" fill="#CAAE5B"/>
<path d="M70.3494 88.3784H47.7154C46.7326 88.3784 45.9355 89.1753 45.9355 90.1583C45.9355 91.1411 46.7326 91.938 47.7154 91.938H70.3494C71.3322 91.938 72.1291 91.1411 72.1291 90.1583C72.1291 89.1753 71.3322 88.3784 70.3494 88.3784Z" fill="#29235C"/>
<path d="M70.3494 97.0835H47.7154C46.7326 97.0835 45.9355 97.8804 45.9355 98.8634C45.9355 99.8462 46.7326 100.643 47.7154 100.643H70.3494C71.3322 100.643 72.1291 99.8462 72.1291 98.8634C72.1291 97.8804 71.3322 97.0835 70.3494 97.0835Z" fill="#CAAE5B"/>
<path d="M61.6443 105.789H47.7154C46.7326 105.789 45.9355 106.586 45.9355 107.569C45.9355 108.552 46.7326 109.349 47.7154 109.349H61.6443C62.6272 109.349 63.4241 108.552 63.4241 107.569C63.4241 106.586 62.6272 105.789 61.6443 105.789Z" fill="#CAAE5B"/>
</svg>
