<svg width="22" height="22" viewBox="0 0 22 22" fill="none" xmlns="http://www.w3.org/2000/svg">
<path d="M20.8535 20.1475L14.991 14.285C16.236 12.875 17.001 11.0275 17.001 9C17.001 4.59 13.411 1 9.00098 1C4.59098 1 1.00098 4.59 1.00098 9C1.00098 13.41 4.59098 17 9.00098 17C11.026 17 12.8735 16.2375 14.286 14.99L20.1485 20.8525C20.246 20.95 20.3735 21 20.501 21C20.6285 21 20.756 20.95 20.8535 20.8525C21.0485 20.6575 21.0485 20.34 20.8535 20.145V20.1475ZM13.951 13.945C13.951 13.945 13.951 13.945 13.946 13.945C13.941 13.945 13.946 13.945 13.946 13.95C12.6785 15.215 10.931 16 9.00348 16C5.14348 16 2.00348 12.86 2.00348 9C2.00348 5.14 5.14098 2 9.00098 2C12.861 2 16.001 5.14 16.001 9C16.001 10.9275 15.2185 12.6775 13.951 13.9425V13.945Z" fill="#29235C" stroke="#29235C" stroke-width="0.25"/>
</svg>
