<svg width="127" height="129" viewBox="0 0 127 129" fill="none" xmlns="http://www.w3.org/2000/svg">
<g clip-path="url(#clip0_174_3020)">
<path d="M98.6559 43.8604H75.0469C76.694 39.8582 82.4734 24.6294 77.8065 18.0264C73.2119 11.5245 64.0659 15.4256 57.3762 18.2575C56.8561 18.4743 56.3359 18.7054 55.8302 18.9077V5.42719C55.9747 4.73366 55.9747 4.08348 55.7147 3.47664C54.7611 1.22266 51.539 1.22266 50.4843 1.22266H30.7475C30.5308 1.22266 25.6183 1.266 22.8586 4.54583C21.2692 6.42415 20.7491 8.9382 21.2837 11.9869C22.7574 20.367 30.5886 39.3814 32.4813 43.8749H9.58033C4.88454 43.8749 1.05566 47.7182 1.05566 52.414V110.541C1.05566 115.236 4.88454 119.065 9.58033 119.065H98.6703C103.366 119.065 107.195 115.236 107.195 110.541V52.414C107.195 47.7182 103.366 43.8749 98.6703 43.8749L98.6559 43.8604ZM58.3732 20.5549C64.6005 17.8963 72.345 14.602 75.7837 19.4568C79.4826 24.7016 74.5845 38.8179 72.3594 43.8171L72.4606 43.8604H51.2934L46.193 21.4796C48.3459 22.7221 51.2067 23.2856 54.1831 22.2453C55.4546 21.7974 56.8705 21.1906 58.3732 20.5549ZM45.225 17.0728C45.225 17.0728 45.1672 16.9572 45.1527 16.8849L45.0949 16.6537C45.0227 16.1769 45.1672 15.6568 46.0919 15.2089C47.9991 14.2986 51.1489 12.0735 53.374 9.61728V19.8902C49.704 21.1761 46.0486 19.0378 45.225 17.0583V17.0728ZM23.7399 11.5534C23.3354 9.25607 23.6677 7.45 24.7658 6.16407C26.7741 3.76561 30.7042 3.72226 30.7475 3.72226H50.4843C52.4348 3.72226 53.2873 4.11237 53.4318 4.45914C54.0531 5.94734 48.9527 11.1344 45.0227 12.9838C43.1733 13.8652 42.3064 15.469 42.6676 17.2317C42.6676 17.2317 42.6965 17.3039 42.6965 17.3328L48.7649 43.8893H35.1399L35.2121 43.8604C35.111 43.6437 25.3726 20.6271 23.7688 11.5678L23.7399 11.5534ZM104.695 110.541C104.695 113.864 101.979 116.58 98.6559 116.58H9.58033C6.25715 116.58 3.54082 113.864 3.54082 110.541V63.0915H104.695V110.541ZM104.695 60.5919H3.54082V52.414C3.54082 49.0764 6.25715 46.3745 9.58033 46.3745H98.6703C101.993 46.3745 104.71 49.0908 104.71 52.414V60.5919H104.695Z" fill="#CAAE5B" stroke="#CAAE5B" stroke-width="1.44486" stroke-miterlimit="10"/>
<path d="M53.3595 9.63164V19.9046C49.6896 21.1905 46.0341 19.0521 45.2105 17.0727C45.1816 17.0149 45.1528 16.9571 45.1383 16.8848L45.0805 16.6536C45.0083 16.1768 45.1527 15.6567 46.0775 15.2088C47.9847 14.2985 51.1345 12.0734 53.3595 9.61719V9.63164Z" fill="#F9F6EE"/>
<path d="M42.6683 17.203C42.6683 17.203 42.6972 17.2752 42.6972 17.3041L48.7656 43.8606H35.1405L35.2128 43.8317C35.1116 43.615 25.3733 20.5984 23.7695 11.5391C23.3649 9.24182 23.6973 7.43574 24.7954 6.14982C26.8037 3.75135 30.7337 3.70801 30.7771 3.70801H50.5138C52.4644 3.70801 53.3169 4.09812 53.4613 4.44489C54.0826 5.93309 48.9823 11.1201 45.0523 12.9695C43.2029 13.8509 42.3359 15.4547 42.6972 17.2174L42.6683 17.203Z" fill="#F9F6EE"/>
<path d="M72.3734 43.8312L72.4746 43.8746H51.3074L46.207 21.4937C48.3599 22.7363 51.2207 23.2998 54.1971 22.2595C55.4686 21.8116 56.8845 21.2048 58.3872 20.569C64.6145 17.9105 72.359 14.6162 75.7977 19.4709C79.4966 24.7158 74.5985 38.832 72.3734 43.8312Z" fill="#F9F6EE"/>
<path d="M104.695 52.3999V60.5778H3.54004V52.3999C3.54004 49.0622 6.25637 46.3604 9.57955 46.3604H98.6695C101.993 46.3604 104.709 49.0767 104.709 52.3999H104.695Z" fill="#F9F6EE"/>
<path d="M104.695 63.0908V110.54C104.695 113.863 101.978 116.579 98.6551 116.579H9.57955C6.25637 116.579 3.54004 113.863 3.54004 110.54V63.0908H104.695Z" fill="#F9F6EE"/>
<path d="M123.694 100.701C123.188 103.995 121.599 106.581 119.403 107.636C117.857 108.286 116.166 108.561 114.505 108.402C114.62 107.838 114.722 107.275 114.808 106.683C115.878 106.683 116.932 106.437 117.9 106.003C120.674 104.645 122.033 101.12 122.105 98.4179C122.177 95.9906 121.296 94.0689 119.663 93.1298C118.247 92.4362 116.701 92.0606 115.112 92.0461V90.2979C117.322 90.2979 120.414 90.5868 121.556 91.656C123.391 93.491 124.243 97.1031 123.694 100.701Z" fill="#F9F6EE"/>
<path d="M80.2482 99.2128V108.287H72.5615V99.2128L75.2056 97.3778V99.5596C75.2056 100.195 75.7258 100.687 76.3471 100.687C76.9683 100.687 77.474 100.166 77.474 99.5596V97.3345L80.2482 99.2128Z" fill="#F9F6EE"/>
<path d="M112.064 89.3881V102.97C112.064 115.396 101.979 125.466 89.553 125.481H83.7013C71.2755 125.481 61.2049 115.396 61.1904 102.97V89.3447H75.1911V94.5751L70.7554 97.5949C70.4664 97.8116 70.2786 98.1584 70.2786 98.534V109.457C70.2786 110.093 70.7843 110.599 71.4056 110.599H81.3607C81.9964 110.599 82.4876 110.078 82.4876 109.457V98.6207C82.4876 98.2306 82.3143 97.8838 81.9964 97.6816L77.4451 94.604V89.3881H112.021H112.064Z" fill="#F9F6EE"/>
<path d="M123.607 89.5611C121.483 87.5527 117.163 87.336 115.097 87.3649V86.3535H58.1553V103.013C58.1986 117.1 69.613 128.486 83.7004 128.5H89.552C100.403 128.486 110.055 121.637 113.652 111.407C114.216 111.48 114.779 111.509 115.357 111.509C117.207 111.537 119.042 111.147 120.732 110.367C123.853 108.864 126.02 105.512 126.699 101.163C127.407 96.5542 126.194 92.0029 123.607 89.5611ZM112.048 102.969C112.034 115.395 101.978 125.466 89.552 125.48H83.7004C71.2746 125.466 61.2184 115.395 61.1895 102.969V89.3444H75.1902L78.9179 89.3877H112.048V102.969ZM115.068 102.998L115.097 95.1961C116.166 95.1961 117.221 95.4417 118.189 95.8896C118.782 96.2074 119.128 97.1755 119.099 98.4181C119.027 100.528 117.929 102.695 116.571 103.345C116.094 103.562 115.588 103.692 115.068 103.721V102.998ZM123.694 100.701C123.188 103.995 121.599 106.582 119.403 107.636C117.857 108.301 116.181 108.575 114.505 108.402C114.62 107.839 114.721 107.275 114.808 106.697C115.877 106.697 116.932 106.451 117.9 106.004C120.674 104.645 122.032 101.134 122.105 98.4181C122.191 95.9907 121.296 94.0691 119.663 93.1299C118.247 92.4364 116.701 92.0607 115.112 92.0463V90.298C117.337 90.298 120.429 90.6014 121.556 91.6706C123.391 93.5056 124.243 97.1177 123.694 100.701Z" fill="#CAAE5B"/>
<path d="M82.0252 97.6816L77.4739 94.604V89.3736H78.9188L75.191 89.3447V94.5751L70.7698 97.5949C70.4664 97.826 70.293 98.1728 70.293 98.5485V109.457C70.293 110.093 70.7842 110.599 71.42 110.599H81.375C82.0108 110.599 82.502 110.093 82.502 109.457V98.6207C82.5165 98.2306 82.3286 97.8838 82.0252 97.6816ZM80.248 108.301H72.5614V99.2276L75.191 97.3781V99.5743C75.2055 100.196 75.7112 100.701 76.3469 100.701C76.9827 100.701 77.4739 100.196 77.4739 99.5743V97.3492L80.248 99.2276V108.301Z" fill="#29235C"/>
</g>
<defs>
<clipPath id="clip0_174_3020">
<rect width="126.57" height="128" fill="white" transform="translate(0.333008 0.5)"/>
</clipPath>
</defs>
</svg>
