<svg width="58" height="56" viewBox="0 0 58 56" fill="none" xmlns="http://www.w3.org/2000/svg">
<g clip-path="url(#clip0_176_2039)">
<path d="M57.6829 31.0416C57.0376 21.6371 49.2559 14.3203 39.8324 14.2444C36.6912 3.69162 25.588 -2.30601 15.0447 0.835157C4.49192 3.97632 -1.50571 15.0795 1.63545 25.6323C3.29619 31.1934 7.28196 35.7486 12.5773 38.121C10.7268 39.1175 9.00912 40.3417 7.45277 41.7652L4.7007 44.261C3.54293 45.3239 3.45752 47.1175 4.52039 48.2847C4.64376 48.4176 4.77662 48.541 4.91896 48.6454L7.96523 50.9324C12.3496 54.2064 17.6734 55.9811 23.1491 56H25.8632C31.3389 55.9811 36.6628 54.2064 41.0471 50.9324L42.1195 50.1258C51.059 48.9206 57.7399 41.3002 57.7494 32.2752V31.535C57.7778 31.3642 57.7494 31.1934 57.6829 31.0416ZM53.887 39.4401C53.7161 39.108 53.3745 38.9087 53.0044 38.9182H46.7505L44.5774 36.745L46.2571 30.8897L49.104 29.5611L54.3615 33.0629C54.5228 33.1673 54.7126 33.2242 54.9024 33.2242C55.0542 33.2242 55.1966 33.1863 55.3294 33.1199L55.8229 32.8731C55.7375 35.2741 55.1207 37.6276 54.0103 39.7533L53.887 39.4401ZM43.5145 43.4734L41.6639 41.7652C40.0127 40.2658 38.1811 38.9846 36.1978 37.9692H43.1254L45.2037 40.057L43.5145 43.4734ZM7.34839 7.89566L19.4006 19.9384L16.3923 22.9467C13.0803 19.9384 8.85728 18.1353 4.39702 17.8221L2.86914 17.7082C3.31517 14.0546 4.88101 10.6288 7.34839 7.89566ZM18.6224 3.59672C18.9356 8.05698 20.7482 12.2705 23.747 15.5825L20.7387 18.6003L8.69595 6.54809C11.4291 4.08071 14.8549 2.51487 18.5085 2.06885L18.6224 3.59672ZM34.1384 7.88617C35.8276 9.75568 37.0993 11.9478 37.8775 14.3393C34.7743 14.6715 31.8039 15.8102 29.2796 17.6418C28.2642 17.0439 27.3152 16.3512 26.4326 15.5825L34.1384 7.88617ZM44.0364 16.7497L44.2832 17.4805L39.7185 20.6786L35.1539 17.4805L35.4006 16.7497C38.2191 15.9431 41.2179 15.9431 44.0364 16.7497ZM44.2072 30.7189V30.7758L44.2642 30.8707L42.8027 36.0712H36.6343L35.1254 30.7853L39.7185 27.7201L44.2072 30.7189ZM33.9107 29.3144L30.0103 27.7486L28.2642 23.3832C28.1788 23.1649 28.0174 22.9846 27.8087 22.8897L26.9451 22.4532C28.5679 20.3369 30.6936 18.6667 33.123 17.5659C32.9996 17.9645 33.142 18.3915 33.4836 18.6287L38.7695 22.3298V26.0688L33.9107 29.3144ZM25.8727 24.038L26.6319 24.4176L28.1693 28.2136L24.3733 32.0095L23.5856 31.7059C23.6805 29.0012 24.4682 26.363 25.8727 24.038ZM27.6663 18.904C26.6224 19.8435 25.6829 20.8968 24.8763 22.0546C24.7814 22.14 24.696 22.2444 24.639 22.3583C24.639 22.3962 24.639 22.4247 24.639 22.4627L22.0767 19.9384L25.0945 16.9206C25.8917 17.6513 26.7553 18.3156 27.6663 18.904ZM20.7387 21.2764L23.6331 24.1709C22.5512 26.2966 21.9059 28.6216 21.7351 31.0036C20.8525 28.5172 19.486 26.2302 17.7114 24.2847L20.7387 21.2764ZM23.8609 35.1222C23.7849 34.6952 23.7185 34.2681 23.6711 33.8316L24.1076 34.0499C24.2404 34.1258 24.3828 34.1732 24.5346 34.1732C24.7909 34.1732 25.0281 34.0783 25.2084 33.898L29.5074 29.5896L33.2369 31.089L34.9735 37.2764C34.983 37.3239 35.0115 37.3808 35.04 37.4188C31.747 35.9099 28.1598 35.1317 24.5346 35.1222H23.8609ZM52.7387 22.7853C54.4564 25.1293 55.5003 27.8909 55.7755 30.7758L54.9688 31.1839L50.3093 28.0712L51.8182 22.7853H52.7387ZM51.1064 20.8874C50.6699 20.8684 50.2713 21.1531 50.1574 21.5801L48.3733 27.796L45.4125 29.21L40.6675 26.0688V22.3298L45.9534 18.6287C46.314 18.401 46.4753 17.9739 46.3615 17.5659C48.1266 18.382 49.7399 19.5018 51.1064 20.8874ZM32.7814 6.54809L25.0945 14.2444C22.4089 11.2646 20.7956 7.46861 20.5109 3.46386L20.4065 1.90752C24.9712 1.82211 29.3935 3.48284 32.7814 6.54809ZM2.70781 19.6062L4.23569 19.7106C8.24993 19.9858 12.0554 21.5991 15.0447 24.2847L7.34839 31.9811C4.28314 28.5932 2.6224 24.1709 2.70781 19.6062ZM8.64851 33.3381L16.3923 25.6323C18.8407 28.3559 20.397 31.7628 20.8431 35.3974C18.8122 35.6916 16.8288 36.242 14.9403 37.0202C12.6248 36.2231 10.499 34.9704 8.67697 33.3381H8.64851ZM39.9653 49.414C35.9036 52.4508 30.9688 54.0926 25.8917 54.1021H23.1776C18.1005 54.1021 13.1657 52.4508 9.10402 49.414L6.05776 47.127C5.83 46.9562 5.68765 46.6904 5.67816 46.4057C5.66867 46.1305 5.77306 45.8553 5.98184 45.6655L8.68646 43.1792C10.6224 41.4235 12.8241 40 15.225 38.9656C15.3674 38.9372 15.5097 38.8802 15.6236 38.7948C24.0317 35.3215 33.6829 37.0297 40.3828 43.1792L43.0874 45.6655C43.2962 45.8553 43.4006 46.1305 43.3911 46.4057C43.3816 46.6904 43.2393 46.9562 43.0115 47.127L39.9653 49.414ZM45.0424 47.5161C45.1752 47.2124 45.2606 46.8992 45.2891 46.5671C45.3081 46.0166 45.1752 45.4757 44.8905 45.0012L46.9498 40.8162H52.416L52.8431 41.6608C50.8976 44.3464 48.174 46.3773 45.0424 47.4591V47.5161Z" fill="#CAAE5B"/>
<path d="M33.0753 44.6121H32.1263V43.6631C32.1263 43.1412 31.6993 42.7141 31.1773 42.7141C30.6554 42.7141 30.2283 43.1412 30.2283 43.6631V44.6121H28.3304V43.6631C28.3304 43.1412 27.9033 42.7141 27.3814 42.7141C26.8594 42.7141 26.4324 43.1412 26.4324 43.6631V44.6121H24.5344V43.6631C24.5344 43.1412 24.1073 42.7141 23.5854 42.7141C23.0635 42.7141 22.6364 43.1412 22.6364 43.6631V44.6121H20.7384V43.6631C20.7384 43.1412 20.3114 42.7141 19.7894 42.7141C19.2675 42.7141 18.8404 43.1412 18.8404 43.6631V44.6121H16.9425V43.6631C16.9425 43.1412 16.5154 42.7141 15.9935 42.7141C15.4715 42.7141 15.0445 43.1412 15.0445 43.6631V44.6121H14.0955C13.5735 44.6121 13.1465 45.0391 13.1465 45.5611C13.1465 46.083 13.5735 46.5101 14.0955 46.5101H15.0445V47.4591C15.0445 47.981 15.4715 48.4081 15.9935 48.4081C16.5154 48.4081 16.9425 47.981 16.9425 47.4591V46.5101H18.8404V47.4591C18.8404 47.981 19.2675 48.4081 19.7894 48.4081C20.3114 48.4081 20.7384 47.981 20.7384 47.4591V46.5101H22.6364V47.4591C22.6364 47.981 23.0635 48.4081 23.5854 48.4081C24.1073 48.4081 24.5344 47.981 24.5344 47.4591V46.5101H26.4324V47.4591C26.4324 47.981 26.8594 48.4081 27.3814 48.4081C27.9033 48.4081 28.3304 47.981 28.3304 47.4591V46.5101H30.2283V47.4591C30.2283 47.981 30.6554 48.4081 31.1773 48.4081C31.6993 48.4081 32.1263 47.981 32.1263 47.4591V46.5101H33.0753C33.5973 46.5101 34.0243 46.083 34.0243 45.5611C34.0243 45.0391 33.5973 44.6121 33.0753 44.6121Z" fill="#29235C"/>
</g>
<defs>
<clipPath id="clip0_176_2039">
<rect width="56.9585" height="56" fill="white" transform="translate(0.800781)"/>
</clipPath>
</defs>
</svg>
