<svg width="23" height="22" viewBox="0 0 23 22" fill="none" xmlns="http://www.w3.org/2000/svg">
<path d="M20.7626 15.1327L16.3876 13.2577C16.2007 13.178 15.993 13.1612 15.7957 13.2099C15.5984 13.2585 15.4223 13.3698 15.2938 13.5272L13.3563 15.8944C10.3155 14.4607 7.86836 12.0136 6.43466 8.97283L8.80189 7.0353C8.95958 6.90705 9.07119 6.73091 9.11982 6.53355C9.16846 6.3362 9.15147 6.12837 9.07143 5.94153L7.19639 1.56645C7.10854 1.36505 6.95317 1.2006 6.75707 1.10148C6.56097 1.00236 6.33642 0.974773 6.12215 1.02347L2.05958 1.96099C1.853 2.00869 1.6687 2.12501 1.53674 2.29095C1.40478 2.45689 1.33296 2.66266 1.33301 2.87468C1.33301 12.8944 9.45424 21 19.4583 21C19.6704 21.0001 19.8763 20.9284 20.0423 20.7964C20.2083 20.6644 20.3247 20.4801 20.3724 20.2734L21.3099 16.2109C21.3583 15.9955 21.3301 15.7701 21.2302 15.5733C21.1304 15.3765 20.965 15.2207 20.7626 15.1327Z" stroke="#CAAE5B" stroke-width="1.66667"/>
</svg>
