<svg width="23" height="22" viewBox="0 0 23 22" fill="none" xmlns="http://www.w3.org/2000/svg"><path d="M9.6.167a.637.637 0 00-.636.637v1.353a9.173 9.173 0 00-2.209.914l-.956-.957a.637.637 0 00-.902 0l-2.45 2.45a.637.637 0 000 .901l.957.956a9.153 9.153 0 00-.915 2.21H1.137a.637.637 0 00-.637.636v3.465a.637.637 0 00.637.638H2.49c.207.773.515 1.515.915 2.208l-.956.957a.638.638 0 000 .9l2.45 2.45a.637.637 0 00.9 0l.957-.956c.693.4 1.436.707 2.209.914v1.353a.637.637 0 00.637.637h3.464a.637.637 0 00.637-.637v-1.353a9.168 9.168 0 002.209-.914l.956.956a.638.638 0 00.901 0l2.45-2.45a.637.637 0 000-.9l-.957-.957a9.15 9.15 0 00.915-2.208h1.353a.637.637 0 00.638-.638V9.267a.637.637 0 00-.638-.637h-1.348a9.134 9.134 0 00-.917-2.211l.954-.954a.637.637 0 000-.901l-2.45-2.45a.637.637 0 00-.901 0l-.954.954a9.16 9.16 0 00-2.211-.916V.804a.637.637 0 00-.637-.637H9.6zm.638 1.274h2.19v1.214a.637.637 0 00.507.623 7.9 7.9 0 012.724 1.129.637.637 0 00.8-.082l.859-.859 1.548 1.549-.859.858a.638.638 0 00-.082.8 7.885 7.885 0 011.13 2.724.637.637 0 00.624.508h1.214v2.19h-1.22a.637.637 0 00-.623.508 7.9 7.9 0 01-1.127 2.721.637.637 0 00.082.8l.86.861-1.548 1.549-.861-.862a.637.637 0 00-.8-.082 7.891 7.891 0 01-2.721 1.127.637.637 0 00-.508.624v1.218h-2.19v-1.218a.637.637 0 00-.507-.624 7.909 7.909 0 01-2.721-1.127.638.638 0 00-.8.082l-.861.862-1.549-1.549.862-.86a.637.637 0 00.082-.8 7.886 7.886 0 01-1.128-2.722.637.637 0 00-.624-.508H1.774v-2.19h1.217a.637.637 0 00.624-.508 7.898 7.898 0 011.128-2.721.637.637 0 00-.082-.8l-.862-.861 1.549-1.549.86.861a.637.637 0 00.8.082A7.89 7.89 0 019.73 3.283a.637.637 0 00.508-.624V1.441zm1.095 2.782a6.777 6.777 0 100 13.555 6.777 6.777 0 000-13.555zm0 1.275a5.5 5.5 0 014.005 9.274v-.381a4.01 4.01 0 00-2.132-3.54 2.577 2.577 0 00.714-1.778 2.596 2.596 0 00-2.587-2.586 2.596 2.596 0 00-2.586 2.586c0 .687.272 1.314.713 1.778a4.01 4.01 0 00-2.132 3.54v.38a5.5 5.5 0 014.005-9.273zm0 2.264c.732 0 1.312.58 1.312 1.311 0 .732-.58 1.312-1.312 1.312-.732 0-1.312-.58-1.312-1.312 0-.732.58-1.311 1.312-1.311zm0 3.898a2.712 2.712 0 012.731 2.73v1.386a5.501 5.501 0 01-5.461 0v-1.385a2.711 2.711 0 012.73-2.731z" fill="#CAAE5B"/></svg>