<svg width="19" height="20" viewBox="0 0 19 20" fill="none" xmlns="http://www.w3.org/2000/svg"><path d="M.854 1.914h1.81V.5a.5.5 0 01.5-.5H5.22a.5.5 0 01.5.5v1.414h7.916V.5a.5.5 0 01.5-.5h2.054a.5.5 0 01.5.5v1.414H18.5a.5.5 0 01.5.5V19.5a.5.5 0 01-.5.5H.854a.5.5 0 01-.5-.5V2.414a.5.5 0 01.5-.5zm2.883 6.102h1.587v1.587H3.737V8.016zm0 7.422h1.587v1.588H3.737v-1.588zm10.293 0h1.587v1.588H14.03v-1.588zm-3.431 0h1.587v1.588H10.6v-1.588zm-3.431 0h1.587v1.588H7.168v-1.588zm-3.431-3.711h1.587v1.587H3.737v-1.587zm10.293 0h1.587v1.587H14.03v-1.587zm-3.431 0h1.587v1.587H10.6v-1.587zm-3.431 0h1.587v1.587H7.168v-1.587zm6.862-3.711h1.587v1.587H14.03V8.016zm-3.431 0h1.587v1.587H10.6V8.016zm-3.431 0h1.587v1.587H7.168V8.016zm-5.814-2.04H18V2.913h-1.31V4.28a.5.5 0 01-.5.5h-2.055a.5.5 0 01-.5-.5V2.914H5.72V4.28a.5.5 0 01-.5.5H3.165a.5.5 0 01-.5-.5V2.914H1.354v3.061zm16.646 1H1.354V19H18V6.975zM3.665 3.78h1.054V1H3.665V3.78zm10.97 0h1.054V1h-1.054V3.78z" fill="#000"/></svg>