<svg width="125" height="129" viewBox="0 0 125 129" fill="none" xmlns="http://www.w3.org/2000/svg"><g clip-path="url(#clip0_170_1167)"><path d="M72.821 120.074H55.515l-.585 4.564h20.188l-2.297-4.564zm51.697-100.6c0-5.12-4.154-9.275-9.274-9.29H98.041V7.45C98.04 3.616 94.925.5 91.078.5a6.946 6.946 0 00-6.95 6.949v2.75H40.39v-2.75C40.346 3.645 37.244.573 33.441.573c-3.804 0-6.905 3.072-6.949 6.876v2.735H9.29C4.17 10.2.015 14.354 0 19.474c0 7.314.015 91.603 0 95.89.015 5.12 4.17 9.274 9.29 9.274h20.918l2.297-4.564H9.289c-2.604-.015-4.71-2.121-4.71-4.71v-4.023a9.204 9.204 0 004.71 1.331h20.465c0-.468.088-.936.205-1.419a6.793 6.793 0 011.858-3.16H9.29a4.707 4.707 0 01-4.71-4.71V38.695H119.94v64.688a4.707 4.707 0 01-4.711 4.71H87.376a450.758 450.758 0 01-4.52 4.579h32.373a9.205 9.205 0 004.711-1.331v4.023c0 2.589-2.107 4.695-4.711 4.71H77.941l2.297 4.564h34.991c5.12 0 9.275-4.154 9.289-9.274v-11.981s-.014-66.955 0-66.984V19.473zM88.708 7.448a2.376 2.376 0 012.384-2.341 2.363 2.363 0 012.37 2.34V22.18a2.382 2.382 0 01-2.385 2.37 2.37 2.37 0 01-2.37-2.37V7.449zm-57.637 0a2.363 2.363 0 012.37-2.341 2.385 2.385 0 012.384 2.34V22.18a2.395 2.395 0 01-2.384 2.34 2.373 2.373 0 01-2.37-2.34V7.449zM119.94 34.13H4.579V19.473a4.707 4.707 0 014.71-4.71h17.203v5.252h-2.53c-.615 0-1.185.234-1.624.672a2.22 2.22 0 00-.659 1.61c.132 2.91 3.292 2.209 5.267 2.282a6.968 6.968 0 006.495 4.49c2.882 0 5.471-1.799 6.495-4.49h2.999a2.288 2.288 0 002.253-2.282 2.288 2.288 0 00-2.253-2.282h-2.546v-5.252h43.74v5.252h-2.53a2.286 2.286 0 00-2.239 2.282c0 1.243.995 2.267 2.238 2.282h2.999a6.955 6.955 0 006.495 4.476 6.97 6.97 0 006.495-4.476h2.999a2.289 2.289 0 002.253-2.282 2.289 2.289 0 00-2.253-2.282h-2.545v-5.252h17.203a4.717 4.717 0 014.71 4.71v14.658h-.014zm-82.33 85.943l-2.282 4.564h14.965l.6-4.564H37.61z" fill="#CAAE5B"/><path d="M93.461 7.448V22.18a2.382 2.382 0 01-2.384 2.37 2.37 2.37 0 01-2.37-2.37V7.448a2.376 2.376 0 012.385-2.34 2.363 2.363 0 012.37 2.34zM35.826 7.448V22.18a2.395 2.395 0 01-2.385 2.34 2.373 2.373 0 01-2.37-2.34V7.448a2.363 2.363 0 012.37-2.34 2.385 2.385 0 012.385 2.34z" fill="#F9F6EE"/><path d="M119.955 19.474V34.13H4.579V19.474a4.707 4.707 0 014.71-4.71h17.204v5.25h-2.531c-.614 0-1.185.235-1.624.674a2.22 2.22 0 00-.658 1.609c.132 2.911 3.291 2.209 5.266 2.282a6.968 6.968 0 006.495 4.49c2.882 0 5.471-1.798 6.495-4.49h3a2.289 2.289 0 002.252-2.282 2.289 2.289 0 00-2.253-2.282H40.39v-5.252h43.74v5.252h-2.531a2.286 2.286 0 00-2.239 2.282c0 1.243.995 2.267 2.239 2.282h2.998a6.955 6.955 0 006.496 4.476 6.97 6.97 0 006.495-4.476h2.998a2.288 2.288 0 002.253-2.282 2.288 2.288 0 00-2.253-2.282h-2.545v-5.252h17.203a4.717 4.717 0 014.711 4.71z" fill="#F9F6EE"/><path d="M92.861 93.026a6.728 6.728 0 00-9.523.03L70.26 106.22H36.41a6.686 6.686 0 00-4.594 1.873 6.79 6.79 0 00-1.857 3.159c-.118.483-.19.951-.205 1.419a6.73 6.73 0 003.393 6.13l-.643 1.272-2.297 4.565-.278.541a2.287 2.287 0 004.082 2.062l1.316-2.603 2.282-4.565.205-.395h33.382c.454 0 .907-.058 1.36-.131l.264.526 2.297 4.565 1.302 2.603a2.287 2.287 0 003.057.966 2.294 2.294 0 001.039-3.028l-.278-.541-2.297-4.565-1.024-2.018c.527-.132 3.058-2.516 5.94-5.384a439.555 439.555 0 004.52-4.578c2.706-2.751 5.003-5.106 5.515-5.559a6.73 6.73 0 001.96-4.74 6.763 6.763 0 00-1.99-4.769zm-3.218 6.29l-8.733 8.778-4.55 4.578-.497.498c-1.229 1.243-2.926 1.931-4.667 1.945H36.41a2.158 2.158 0 01-2.107-2.165c0-.102 0-.19.03-.278.131-1.038 1.009-1.857 2.077-1.872h33.85c1.2 0 2.355-.483 3.204-1.331l1.36-1.375 11.762-11.82c.424-.41.965-.615 1.506-.615.542 0 1.097.22 1.522.63.819.833.834 2.179.029 3.028z" fill="#29235C"/><path d="M55.573 119.679l-.058.395-.585 4.564-.25 1.858a2.29 2.29 0 01-2.56 1.931 2.285 2.285 0 01-1.974-2.516l.161-1.273.6-4.564.058-.395h4.623-.015z" fill="#CAAE5B"/><path d="M119.94 38.695v64.688a4.707 4.707 0 01-4.71 4.71H87.377c2.706-2.75 5.003-5.105 5.515-5.559a6.726 6.726 0 001.96-4.74 6.764 6.764 0 00-1.99-4.768 6.728 6.728 0 00-9.523.03L70.261 106.22H57.344l2.4-18.374c8.06.922 26.975 1.595 27.955-6.144a29.329 29.329 0 00-5.033-20.48 29.33 29.33 0 00-17.495-11.805l.38-2.852a2.332 2.332 0 00-.454-1.697 2.3 2.3 0 00-1.52-.878c-2.853-.264-2.634 2.867-2.941 4.783a29.303 29.303 0 00-20.378 6.612 29.358 29.358 0 00-10.46 18.696c-.935 7.139 14.6 11.483 25.41 13.18l-2.472 18.959H36.411a6.685 6.685 0 00-4.594 1.872H9.29a4.707 4.707 0 01-4.71-4.71V38.695h115.36zM72.821 120.074H55.516l.058-.395h15.623a8.47 8.47 0 001.36-.132l.264.527zM50.952 119.679l-.059.395H37.61l.205-.395h13.137zM119.94 111.341v4.023c0 2.589-2.107 4.695-4.711 4.71H77.941l-1.024-2.019c.527-.131 3.057-2.516 5.94-5.383h32.372a9.205 9.205 0 004.711-1.331zM33.149 118.801l-.644 1.273H9.289c-2.603-.015-4.71-2.121-4.71-4.71v-4.023a9.204 9.204 0 004.71 1.331h20.466a6.728 6.728 0 003.394 6.129z" fill="#F9F6EE"/><path d="M89.645 99.316l-8.734 8.777-4.55 4.579-.496.497c-1.23 1.244-2.926 1.931-4.667 1.946H36.41a2.158 2.158 0 01-2.106-2.165c0-.103 0-.191.029-.278.132-1.039 1.01-1.858 2.077-1.873h33.85c1.2 0 2.356-.482 3.204-1.331l1.36-1.375 11.762-11.82c.424-.41.966-.614 1.507-.614.541 0 1.097.22 1.521.629.82.834.834 2.18.03 3.028zM83.194 75.033A44.157 44.157 0 0072.09 70.6a42.016 42.016 0 00-4.622-15.725 24.747 24.747 0 0110.664 7.899 25.002 25.002 0 015.061 12.259zM56.29 53.398a42.257 42.257 0 00-8.528 13.999 43.342 43.342 0 00-11.864 1.419A24.846 24.846 0 0156.29 53.397zM67.38 69.459a99.63 99.63 0 00-7.344-1.258 100.314 100.314 0 00-7.417-.673 38.165 38.165 0 019.26-13.254h.015a37.936 37.936 0 015.5 15.185h-.015zM83.163 81.104c-.6 1.316-8.353 3.789-22.82 2.223l1.346-10.269c14.365 2.224 21.24 6.612 21.474 8.046zM57.154 72.473l-1.346 10.255c-14.453-2.239-21.314-6.656-21.475-8.017.395-1.01 5.135-2.75 14.014-2.75 2.94.015 5.88.175 8.807.512z" fill="#F9F6EE"/><path d="M82.667 61.223A29.331 29.331 0 0065.17 49.418l.38-2.853a2.33 2.33 0 00-.453-1.697 2.301 2.301 0 00-1.521-.877c-2.853-.264-2.634 2.867-2.94 4.783a29.303 29.303 0 00-20.378 6.612 29.359 29.359 0 00-10.46 18.696c-.936 7.138 14.6 11.483 25.41 13.18l-2.472 18.959h4.608l2.399-18.374c8.06.922 26.975 1.595 27.955-6.144a29.328 29.328 0 00-5.032-20.48zm-38.707-2.94a24.846 24.846 0 0112.331-4.886 42.258 42.258 0 00-8.528 14A43.342 43.342 0 0035.9 68.814a24.8 24.8 0 018.06-10.532zm11.849 24.444c-14.453-2.238-21.314-6.656-21.475-8.016.395-1.01 5.135-2.75 14.014-2.75 2.94.014 5.88.175 8.807.511l-1.346 10.255zm-3.19-15.199a38.163 38.163 0 019.26-13.253h.015a37.936 37.936 0 015.5 15.184 99.627 99.627 0 00-7.343-1.258 100.319 100.319 0 00-7.417-.673h-.014zm7.725 15.799l1.346-10.27c14.365 2.224 21.24 6.613 21.474 8.046-.6 1.317-8.353 3.79-22.82 2.224zM72.09 70.6a42.015 42.015 0 00-4.622-15.726 24.745 24.745 0 0110.664 7.9 25.002 25.002 0 015.061 12.258A44.16 44.16 0 0072.09 70.6z" fill="#CAAE5B"/></g><defs><clipPath id="clip0_170_1167"><path fill="#fff" transform="translate(0 .5)" d="M0 0h124.52v128H0z"/></clipPath></defs></svg>