<svg width="18" height="16" viewBox="0 0 18 16" fill="none" xmlns="http://www.w3.org/2000/svg"><path d="M4.125 12.406a.75.75 0 000-1.5A2.628 2.628 0 011.5 8.281a2.628 2.628 0 012.93-2.605.75.75 0 00.835-.687A3.763 3.763 0 019 1.53a3.763 3.763 0 013.735 3.458.75.75 0 00.834.687c.1-.012.202-.02.306-.02A2.628 2.628 0 0116.5 8.281a2.628 2.628 0 01-2.625 2.625.75.75 0 000 1.5A4.13 4.13 0 0018 8.281a4.13 4.13 0 00-3.874-4.117C13.608 1.797 11.48.031 9 .031c-2.48 0-4.608 1.766-5.126 4.133A4.13 4.13 0 000 8.281a4.13 4.13 0 004.125 4.125z" fill="#29235C"/><path d="M9 7.828a.75.75 0 00-.75.75v4.83l-.86-.86a.75.75 0 10-1.061 1.06l2.14 2.141a.747.747 0 001.061 0l2.141-2.14a.75.75 0 10-1.06-1.061l-.86.86v-4.83a.75.75 0 00-.75-.75z" fill="#29235C"/></svg>