<svg width="18" height="16" viewBox="0 0 18 16" fill="none" xmlns="http://www.w3.org/2000/svg"><path d="M17.837 7.24a9.722 9.722 0 00-17.674 0 1.855 1.855 0 000 1.52 9.727 9.727 0 0012.446 4.974 9.726 9.726 0 005.228-4.974 1.855 1.855 0 000-1.52zm-1.172.99A8.432 8.432 0 015.87 12.541 8.434 8.434 0 011.335 8.23a.567.567 0 010-.46 8.436 8.436 0 0115.33 0 .567.567 0 010 .46zM9 4.143a3.857 3.857 0 100 7.715 3.857 3.857 0 000-7.715zm0 6.429a2.572 2.572 0 110-5.143 2.572 2.572 0 010 5.143z" fill="#29235C"/></svg>