<svg width="22" height="20" viewBox="0 0 22 20" fill="none" xmlns="http://www.w3.org/2000/svg"><path d="M2.439 0C1.555 0 .823.732.823 1.615v11.368c0 .883.732 1.615 1.616 1.615h6.078v2.172H5.606a.618.618 0 00-.621.616v1.998a.618.618 0 00.62.616h11.459a.618.618 0 00.616-.616v-1.998a.618.618 0 00-.616-.616h-2.912v-2.172h6.078c.884 0 1.612-.732 1.612-1.615V1.615C21.842.732 21.114 0 20.23 0H2.44zm0 1.236H20.23c.219 0 .375.158.375.38v11.367a.362.362 0 01-.375.378H2.44a.365.365 0 01-.38-.378V1.615l.003-.04a.364.364 0 01.377-.339zm5.106 2.57a.618.618 0 00-.424.205L4.593 6.89a.618.618 0 000 .816l2.528 2.88a.618.618 0 00.93-.817L5.88 7.296l2.172-2.468a.618.618 0 00-.507-1.022zm7.575 0a.618.618 0 00-.447.15.619.619 0 00-.054.872l2.172 2.468-2.172 2.474a.618.618 0 00.926.816l2.531-2.88a.618.618 0 000-.816l-2.531-2.88a.618.618 0 00-.425-.204zm-2.158.148a.618.618 0 00-.571.308L9.206 9.711a.618.618 0 001.067.624l3.187-5.448a.618.618 0 00-.498-.933zM9.754 14.598h3.162v2.172H9.754v-2.172zm-3.533 3.409h10.221v.757H6.223v-.757z" fill="#CAAE5B"/></svg>