<svg width="78" height="56" viewBox="0 0 78 56" fill="none" xmlns="http://www.w3.org/2000/svg"><g clip-path="url(#clip0_176_2021)"><path d="M56.733 23.697L25.256 53.163c-1.62 1.517-4.245 1.519-5.868.007l-2.492-2.333c2.246-3.094 2.043-7.205-.5-10.09-2.955-3.324-8.126-3.996-11.935-1.55l-1.436-1.345c-1.615-1.518-1.617-3.97-.005-5.489l31.428-29.53c1.621-1.515 4.247-1.515 5.871-.003l2.114 1.98c-1.945 3.28-1.42 7.375 1.477 10.087l.022.02c2.853 2.662 7.251 3.223 10.762 1.37l2.047 1.916c1.614 1.52 1.612 3.977-.007 5.494z" fill="#F9F6EE"/><path d="M58.022 17.002l-2.554-2.39a.965.965 0 00-1.159-.095c-2.845 1.807-6.661 1.47-9.098-.804l-.017-.015c-2.456-2.3-2.809-5.815-.869-8.539a.819.819 0 00-.105-1.079l-2.618-2.45c-2.336-2.178-6.112-2.173-8.443.01L1.737 31.162c-2.318 2.184-2.315 5.71.004 7.89l1.994 1.867a.954.954 0 001.225.05c3.025-2.36 7.52-1.976 10.042.857 2.201 2.476 2.201 6.07 0 8.543a.812.812 0 00.053 1.147l3.05 2.854c2.331 2.175 6.105 2.172 8.433-.006l31.478-29.468c2.327-2.18 2.33-5.711.007-7.895h-.001zM25.256 53.163c-1.62 1.517-4.245 1.519-5.868.007l-2.492-2.333c2.246-3.094 2.043-7.205-.5-10.09-2.955-3.324-8.126-3.996-11.935-1.55l-1.436-1.345c-1.615-1.518-1.617-3.97-.005-5.489l31.428-29.53c1.621-1.515 4.246-1.515 5.87-.003l2.115 1.98c-1.945 3.28-1.42 7.375 1.477 10.087l.022.02c2.853 2.662 7.251 3.223 10.762 1.37l2.047 1.916c1.614 1.52 1.612 3.977-.007 5.494L25.256 53.163z" fill="#CAAE5B"/><path d="M25.96 42.816l-11.942-11.18a.951.951 0 00-1.282 0 .811.811 0 000 1.2l11.942 11.18a.952.952 0 001.282 0 .811.811 0 000-1.2z" fill="#CAAE5B"/><path d="M28.364 40.565l-11.942-11.18a.951.951 0 00-1.282 0 .811.811 0 000 1.2l11.942 11.18a.952.952 0 001.282 0 .811.811 0 000-1.2z" fill="#29235C"/><path d="M36.768 38.226l-.423-.395 1.184-1.108a.858.858 0 00-.005-1.242l-.697-.652 5.53-5.178.95.89a.94.94 0 001.269.012.807.807 0 00.263-.704l-1.716-13.53c-.05-.39-.379-.696-.795-.742l-14.455-1.605c-.491-.056-.938.271-.998.73a.808.808 0 00.263.702l.951.89-5.53 5.178-.699-.654a1.008 1.008 0 00-1.325-.004l-1.183 1.108-.423-.396a.88.88 0 00-1.186-.05l-.04.037-2.064 1.932a.76.76 0 00-.03 1.125l.033.031 17.838 16.7c.322.32.86.334 1.203.032.012-.009.022-.02.033-.03l2.064-1.933a.75.75 0 00-.013-1.146v.002zm-1.226-4.598l-.32-.3 5.53-5.177.321.3-5.53 5.177zm-3.686-13.806l-5.53 5.177-.883-.826 5.531-5.177.882.826zm1.282 1.2l.24.225-5.53 5.177-.24-.225 5.53-5.177zm1.524 1.426l1.122 1.05-5.53 5.178-1.123-1.05 5.53-5.178zm2.404 2.25l.24.226-5.53 5.177-.24-.225 5.53-5.177zm1.522 1.427l.882.826-5.53 5.177-.882-.826 5.53-5.177zm2.83-8.951l1.322 10.435-12.47-11.672 11.148 1.237zm-12.047.321l.321.3-5.53 5.178-.321-.3 5.53-5.178zm-8.176 5.102l14.428 13.507-.561.525-14.428-13.506.56-.526zM34.1 39.481L17.589 24.024l.72-.675 16.512 15.457-.72.675z" fill="#CAAE5B"/><path d="M74.374 23.697L42.897 53.163c-1.62 1.517-4.245 1.519-5.869.007l-2.491-2.333c2.245-3.094 2.042-7.205-.5-10.09-2.955-3.324-8.127-3.996-11.936-1.55l-1.436-1.345c-1.614-1.518-1.616-3.97-.004-5.489l31.428-29.53c1.62-1.515 4.246-1.515 5.87-.003l2.115 1.98c-1.945 3.28-1.42 7.375 1.477 10.087l.021.02c2.853 2.662 7.252 3.223 10.762 1.37l2.048 1.916c1.614 1.52 1.612 3.977-.007 5.494h-.001z" fill="#F9F6EE"/><path d="M75.662 17.002l-2.553-2.39a.965.965 0 00-1.159-.095c-2.845 1.807-6.662 1.47-9.098-.804l-.017-.015c-2.456-2.3-2.809-5.815-.87-8.539a.819.819 0 00-.105-1.079l-2.617-2.45C56.906-.548 53.13-.543 50.8 1.64L19.377 31.162c-2.318 2.184-2.314 5.71.005 7.89l1.994 1.867a.954.954 0 001.224.05c3.026-2.36 7.521-1.976 10.042.857 2.202 2.476 2.202 6.07 0 8.543a.812.812 0 00.054 1.147l3.049 2.854c2.332 2.175 6.105 2.172 8.434-.006l31.477-29.467c2.327-2.18 2.33-5.711.006-7.895v-.001zM42.897 53.163c-1.62 1.517-4.245 1.519-5.869.007l-2.491-2.333c2.245-3.094 2.042-7.205-.5-10.09-2.956-3.324-8.127-3.996-11.936-1.55l-1.436-1.345c-1.614-1.518-1.616-3.97-.004-5.489l31.428-29.53c1.62-1.515 4.246-1.515 5.87-.003l2.115 1.98c-1.945 3.28-1.42 7.375 1.477 10.087l.021.02c2.853 2.662 7.252 3.223 10.762 1.37l2.048 1.916c1.614 1.52 1.611 3.977-.007 5.494L42.898 53.163h-.001z" fill="#CAAE5B"/><path d="M43.6 42.816L31.66 31.636a.952.952 0 00-1.282 0 .811.811 0 000 1.2l11.942 11.18a.952.952 0 001.282 0 .811.811 0 000-1.2z" fill="#CAAE5B"/><path d="M46.007 40.565l-11.942-11.18a.952.952 0 00-1.282 0 .811.811 0 000 1.2l11.942 11.18a.952.952 0 001.282 0 .812.812 0 000-1.2z" fill="#29235C"/><path d="M54.408 38.226l-.422-.395 1.183-1.108a.858.858 0 00-.004-1.242l-.698-.652 5.531-5.178.95.89a.94.94 0 001.269.012.807.807 0 00.263-.704l-1.717-13.53c-.05-.39-.378-.696-.794-.742l-14.456-1.605c-.49-.056-.937.271-.997.73a.808.808 0 00.263.702l.95.89-5.53 5.178-.698-.654a1.008 1.008 0 00-1.325-.004l-1.184 1.108-.422-.396a.88.88 0 00-1.186-.05l-.04.037-2.064 1.932a.76.76 0 00-.03 1.125c.01.01.02.021.032.031l17.84 16.7c.321.32.86.334 1.202.032l.033-.03 2.064-1.933a.75.75 0 00-.014-1.146l.002.002zm-1.225-4.598l-.32-.3 5.53-5.177.32.3-5.53 5.177zm-3.686-13.806l-5.531 5.177-.882-.826 5.53-5.177.883.826zm1.282 1.2l.24.225-5.53 5.177-.24-.225 5.53-5.177zm1.523 1.426l1.123 1.05-5.531 5.178-1.122-1.05 5.53-5.178zm2.405 2.25l.24.226-5.53 5.177-.241-.225 5.53-5.177zm1.522 1.427l.882.826-5.53 5.177-.883-.826 5.531-5.177zm2.83-8.951l1.321 10.435-12.47-11.672 11.148 1.237zm-12.047.321l.32.3-5.53 5.178-.32-.3 5.53-5.178zm-8.176 5.102l14.428 13.507-.562.525-14.428-13.506.562-.526zM51.74 39.481L35.23 24.024l.72-.675 16.512 15.457-.72.675z" fill="#CAAE5B"/></g><defs><clipPath id="clip0_176_2021"><path fill="#fff" d="M0 0h77.4v56H0z"/></clipPath></defs></svg>