<svg width="200" height="35" viewBox="0 0 200 35" fill="none" xmlns="http://www.w3.org/2000/svg"><g clip-path="url(#clip0_176_2186)"><path d="M4.813 25.572H0V.84h4.813M39.416 16.015l-3.42-9.734-3.559 9.734h6.979zM33.87.806h4.255l9.42 24.766H42.59l-2.302-6.173h-8.65l-2.268 6.173h-4.952L33.868.806zM58.567 13.05h5.582c.884 0 1.621-.359 2.215-1.08.593-.723.89-1.7.89-2.932 0-.63-.094-1.193-.28-1.693a4.081 4.081 0 00-.733-1.271 2.876 2.876 0 00-1.064-.786 3.11 3.11 0 00-1.239-.26h-5.37v8.021zm-4.815 12.522V.806h10.5c1.14 0 2.192.239 3.156.715a8.191 8.191 0 012.495 1.883 8.925 8.925 0 011.64 2.652c.395.99.593 1.984.593 2.982 0 .998-.185 2.065-.558 3.052a8.41 8.41 0 01-1.57 2.634 7.717 7.717 0 01-2.441 1.848c-.954.466-2 .699-3.138.699h-5.862v8.301H53.752zM83.788 13.05h6.034c.442 0 .855-.104 1.239-.315a3.12 3.12 0 00.994-.855c.28-.36.5-.784.665-1.274.162-.487.242-1.01.242-1.57s-.093-1.116-.276-1.604a4.216 4.216 0 00-.75-1.274 3.376 3.376 0 00-1.08-.838 2.837 2.837 0 00-1.239-.294h-5.826v8.021l-.003.002zm-4.815 12.522V.806h10.954c1.139 0 2.192.239 3.156.715a8.169 8.169 0 012.495 1.883 8.962 8.962 0 011.64 2.652c.395.99.593 1.984.593 2.982 0 1.605-.4 3.063-1.203 4.377-.803 1.315-1.889 2.261-3.26 2.844l5.65 9.311H93.59l-5.057-8.3h-4.744v8.3h-4.815v.002zM117.869 16.015l-3.42-9.734-3.557 9.734h6.977zM112.321.806h4.256l9.417 24.766h-4.953l-2.302-6.173h-8.651l-2.268 6.173h-4.953L112.321.806zM137.017.806h-4.814v24.766h4.814V.806zM150.483 9.7v15.872h-4.813V.806h3.732l12.906 16.255V.84h4.815v24.732h-3.908L150.483 9.701zM15.172 25.572h5.804l-10.36-12.366L21.01.806h-5.803L4.813 13.208l10.36 12.364z" fill="#262261"/><path d="M200 31.506h-67.797v2.688H200v-2.688zM175.28 19.29v.553c0 1.156.223 2.053.67 2.692.447.64 1.082.96 1.905.96.665 0 1.235-.133 1.707-.395.473-.262.998-.736 1.576-1.418a.717.717 0 01.577-.289c.298 0 .652.105 1.064.316.412.21.827.499 1.247.866-.682 1.19-1.554 2.07-2.614 2.639-1.06.569-2.359.854-3.901.854-1.208 0-2.281-.259-3.218-.776a5.447 5.447 0 01-2.18-2.167c-.517-.928-.775-1.996-.775-3.204 0-1.803.319-3.37.959-4.701.639-1.331 1.554-2.35 2.744-3.06 1.191-.71 2.6-1.064 4.229-1.064 1.96 0 3.393.451 4.295 1.353.902.902 1.353 2.324 1.353 4.268 0 .666-.088 1.524-.262 2.573h-9.378.002zm1.629-4.806c-.613.613-1.061 1.48-1.34 2.6h5.542c.052-.403.078-.77.078-1.103 0-1.611-.682-2.417-2.049-2.417-.877 0-1.62.307-2.233.92h.002zM190.764 22.022c-.035.28-.051.472-.051.578 0 .402.092.687.276.853.183.166.486.25.905.25.613 0 1.296-.148 2.05-.448.315.123.472.394.472.815 0 .42-.157.754-.472 1.051-.316.28-.802.508-1.458.683a8.414 8.414 0 01-2.167.262c-1.085 0-1.948-.28-2.588-.841-.64-.56-.959-1.314-.959-2.26 0-.123.018-.325.052-.604l1.208-8.537h-2.206l.342-2.468h2.207l.55-3.94h3.887l-.552 3.94h2.732l-.343 2.469h-2.732l-1.156 8.195.003.002z" fill="#CBAE5B"/></g><defs><clipPath id="clip0_176_2186"><path fill="#fff" transform="translate(0 .806)" d="M0 0h200v33.39H0z"/></clipPath></defs></svg>