<svg width="320" height="83" viewBox="0 0 320 83" fill="none" xmlns="http://www.w3.org/2000/svg"><g clip-path="url(#clip0_176_2171)" fill="#fff"><path d="M105.172 25.127h-6.4v32.746h6.4V25.127zM150.933 45.287l-4.48-12.907-4.694 12.907h9.174zm-7.36-20.16h5.653l12.48 32.746h-6.507l-3.093-8.213h-11.413l-2.987 8.213h-6.507l12.374-32.746zM176.319 41.34h7.36c1.173 0 2.133-.427 2.88-1.387.747-.96 1.173-2.24 1.173-3.84 0-.853-.106-1.6-.32-2.24-.213-.64-.533-1.173-.96-1.706-.426-.427-.853-.854-1.386-1.067a4.285 4.285 0 00-1.6-.32h-7.147v10.56zm-6.4 16.533V25.127h13.867c1.493 0 2.88.32 4.16.96 1.28.64 2.346 1.493 3.306 2.453.96 1.067 1.6 2.24 2.134 3.52.533 1.28.746 2.667.746 3.947 0 1.386-.213 2.773-.746 4.053-.534 1.28-1.174 2.453-2.027 3.52-.853 1.067-1.92 1.813-3.2 2.453-1.28.64-2.667.96-4.16.96h-7.787V57.98l-6.293-.107zM209.707 41.34h8c.533 0 1.173-.107 1.6-.427.533-.32.96-.64 1.28-1.173.32-.427.64-1.067.853-1.707.213-.64.32-1.386.32-2.026 0-.747-.107-1.494-.32-2.134-.213-.64-.533-1.173-.96-1.706-.427-.427-.853-.854-1.387-1.067-.533-.213-1.066-.427-1.6-.427h-7.68V41.34h-.106zm-6.4 16.533V25.127h14.506c1.494 0 2.88.32 4.16.96 1.28.64 2.347 1.493 3.307 2.453.96 1.067 1.6 2.24 2.133 3.52.534 1.28.747 2.667.747 3.947 0 2.133-.533 4.053-1.6 5.76-1.067 1.706-2.453 2.986-4.267 3.733l7.467 12.373h-7.147l-6.72-10.986H209.6v10.986h-6.293zM254.826 45.287l-4.587-12.907-4.693 12.907h9.28zm-7.36-20.16h5.653l12.48 32.746h-6.506l-3.094-8.213h-11.413l-2.987 8.213h-6.506l12.373-32.746zM280.213 25.127h-6.4v32.746h6.4V25.127zM297.919 36.86v21.013h-6.293V25.127h4.907l17.066 21.546V25.127h6.4v32.746h-5.12l-16.96-21.013z"/><path d="M118.825 57.873h7.68l-13.653-16.32 13.76-16.426h-7.68l-13.76 16.426 13.653 16.32zM50.347 27.9a3.831 3.831 0 00-.747-1.067c-.533-.64-1.173-1.173-1.92-1.493-.746-.32-1.493-.534-2.24-.534h-.64l-15.36 16.64 23.04 25.067h8.427l-23.04-25.067L50.347 27.9z"/><path d="M29.547 16.38h-6.4v50.133h6.4V16.38zM59.733 26.62a15.947 15.947 0 00-3.2-5.12c-1.387-1.493-2.987-2.773-4.8-3.627-1.813-.96-3.947-1.386-6.08-1.386h-12.48v5.653h12.16c1.173 0 2.347.213 3.52.747 1.067.533 2.027 1.28 2.88 2.24.853.96 1.493 2.026 2.027 3.306.533 1.28.746 2.667.746 4.054 0 1.386-.213 2.773-.64 4.053-.426 1.28-1.066 2.347-1.813 3.413-.747.96-1.707 1.707-2.773 2.24-1.067.534-2.24.854-3.52.854h-1.494l4.8 5.333c1.067-.213 2.134-.533 3.094-1.067 1.813-.853 3.413-2.133 4.693-3.626 1.28-1.494 2.347-3.2 2.987-5.12.746-1.92 1.066-3.947 1.066-5.974 0-2.133-.426-4.16-1.173-5.973z"/><path d="M41.067 6.033c-19.52 0-35.414 15.894-35.414 35.414 0 19.626 15.894 35.52 35.52 35.52 19.627 0 35.52-15.894 35.52-35.52-.106-19.52-16-35.414-35.626-35.414zm0 76.587C18.453 82.62 0 64.167 0 41.447 0 18.833 18.453.38 41.067.38c22.72 0 41.066 18.453 41.066 41.067.107 22.72-18.346 41.173-41.066 41.173z"/></g><defs><clipPath id="clip0_176_2171"><path fill="#fff" transform="translate(0 .38)" d="M0 0h320v82.24H0z"/></clipPath></defs></svg>