<svg width="155" height="129" viewBox="0 0 155 129" fill="none" xmlns="http://www.w3.org/2000/svg"><path d="M150.459 65h-7.218v-4.587a4.098 4.098 0 00-4.091-4.098h-10.304a4.102 4.102 0 00-4.096 4.098v14.432h-5.468c.189-1.663.318-3.337.318-5.02 0-13.182-5.79-25.03-14.951-33.146l4.041-17.38c1.168-5.02.308-9.676-2.416-13.112C103.371 2.52 98.52.5 92.624.5L58.251.504c-5.9 0-10.751 2.022-13.654 5.688-2.723 3.436-3.578 8.092-2.415 13.111l4.046 17.38c-9.156 8.113-14.947 19.96-14.947 33.142 0 14.98 7.476 28.823 20.003 37.041l.178.12c1.531 1.006 4.101 2.699 9.335 2.699H90.09c5.22 0 7.79-1.683 9.32-2.689l.194-.13c6.044-3.964 11.03-9.392 14.514-15.722h10.632v14.432a4.108 4.108 0 004.096 4.108h10.305c2.256 0 4.091-1.842 4.091-4.108v-4.582h7.217a4.106 4.106 0 004.096-4.103V69.097c0-2.26-1.84-4.097-4.096-4.097zm-104.4-46.597c-.884-3.81-.298-7.261 1.656-9.731 2.137-2.7 5.88-4.183 10.542-4.183H92.63c4.658 0 8.4 1.484 10.533 4.178 1.953 2.465 2.54 5.92 1.655 9.73l-3.609 15.528a44.278 44.278 0 00-4.886-3.077l2.436-11.529c.437-2.072.82-5.08-.9-7.2-1.133-1.4-2.902-2.107-5.264-2.107l-34.297.005c-2.366 0-4.136.707-5.27 2.106-1.714 2.122-1.331 5.124-.894 7.201l2.43 11.529c-1.699.916-3.33 1.952-4.885 3.077l-3.62-15.527zm12.193 10.672L56.02 18.502c-.417-1.977-.387-3.277.095-3.87.422-.522 1.421-.632 2.182-.632h34.292c.76 0 1.755.11 2.177.633.478.592.512 1.892.095 3.87l-2.232 10.576a43.845 43.845 0 00-17.189-3.49 43.766 43.766 0 00-17.188 3.486zm-4.613 74.579l-.183-.12c-11.393-7.48-18.198-20.079-18.198-33.708 0-22.2 18.023-40.258 40.182-40.258 22.16 0 40.183 18.057 40.183 40.258 0 1.683-.139 3.356-.343 5.02h-11.651c.388-1.903.602-3.85.602-5.817 0-15.906-12.914-28.849-28.79-28.849-15.878 0-28.796 12.943-28.796 28.849 0 9.766 4.876 18.794 13.113 24.188.318.21.74.483 1.278.757v2.918c0 2.261 1.834 4.104 4.09 4.104h7.218v4.581c0 .04.015.08.015.125H60.792c-4.041 0-5.84-1.182-7.153-2.048zm18.705-6.668l-7.332-.095.114-27.908h7.218v28.003zm3.976 8.59l.115-45.278 10.423.115-.114 45.283h-10.24c-.04-.055-.08-.12-.184-.12zm10.424-49.262h-10.31a4.098 4.098 0 00-4.09 4.099v4.586h-7.218a4.098 4.098 0 00-4.09 4.099v20.118c-6.522-4.671-10.414-12.12-10.414-20.188 0-13.715 11.134-24.865 24.819-24.865 13.684 0 24.813 11.155 24.813 24.865 0 1.972-.238 3.924-.696 5.816H90.83V60.413a4.09 4.09 0 00-4.086-4.099zM97.43 103.53l-.204.129c-1.228.802-2.898 1.873-6.402 2.012 0-.035.01-.06.01-.095V91.144h18.68c-3.087 4.94-7.208 9.188-12.084 12.385zm-6.596-16.364v-8.337h33.914v8.337H90.835zm48.43 18.41c0 .07-.06.124-.115.124l-10.423-.124.119-45.278 10.414.114.005 45.164zm11.194-8.56h-7.218l-.005-28.008 7.342.09-.119 27.917z" fill="#F9F6EE"/><path d="M53.64 103.654l-.184-.12c-11.393-7.48-18.198-20.079-18.198-33.708 0-22.2 18.023-40.258 40.182-40.258 22.16 0 40.183 18.057 40.183 40.258 0 1.683-.139 3.356-.343 5.02h-11.651c.388-1.903.602-3.85.602-5.817 0-15.906-12.914-28.849-28.79-28.849-15.878 0-28.796 12.943-28.796 28.849 0 9.766 4.876 18.794 13.113 24.188.318.21.74.483 1.278.757v2.918c0 2.261 1.834 4.104 4.09 4.104h7.218v4.581c0 .04.015.08.015.125H60.792c-4.041 0-5.84-1.182-7.153-2.048z" fill="#F9F6EE"/><path d="M46.06 18.402c-.886-3.81-.299-7.26 1.654-9.73 2.138-2.7 5.88-4.183 10.543-4.183H92.63c4.658 0 8.4 1.484 10.533 4.178 1.953 2.465 2.54 5.92 1.655 9.73l-3.609 15.528a44.278 44.278 0 00-4.886-3.077l2.436-11.529c.437-2.072.82-5.08-.9-7.2-1.133-1.4-2.902-2.107-5.264-2.107l-34.297.005c-2.366 0-4.136.707-5.27 2.106-1.714 2.122-1.331 5.124-.894 7.201l2.43 11.529c-1.699.916-3.33 1.952-4.885 3.077l-3.62-15.527zM90.835 87.165v-8.337h33.914v8.337H90.835zM97.43 103.529l-.203.129c-1.228.802-2.898 1.873-6.402 2.012 0-.035.01-.06.01-.095V91.144h18.68c-3.087 4.94-7.208 9.188-12.084 12.385zM139.265 105.575c0 .07-.06.124-.115.124l-10.423-.124.119-45.278 10.414.114.005 45.164zM150.459 97.014h-7.218l-.005-28.007 7.342.09-.119 27.917z" fill="#F9F6EE"/><path d="M150.459 65h-7.218v-4.587a4.098 4.098 0 00-4.091-4.098h-10.304a4.102 4.102 0 00-4.096 4.098v14.432h-5.468c.189-1.663.318-3.337.318-5.02 0-13.182-5.79-25.03-14.951-33.146l4.041-17.38c1.168-5.02.308-9.676-2.416-13.112C103.371 2.52 98.52.5 92.624.5L58.251.504c-5.9 0-10.751 2.022-13.654 5.688-2.723 3.436-3.578 8.092-2.415 13.111l4.046 17.38c-9.156 8.113-14.947 19.96-14.947 33.142 0 14.98 7.476 28.823 20.003 37.041l.178.12c1.531 1.006 4.101 2.699 9.335 2.699H90.09c5.22 0 7.79-1.684 9.32-2.689l.194-.13c6.044-3.964 11.03-9.392 14.514-15.722h10.632v14.432a4.108 4.108 0 004.096 4.108h10.305c2.256 0 4.091-1.842 4.091-4.108v-4.582h7.217a4.106 4.106 0 004.096-4.103V69.097c0-2.26-1.84-4.097-4.096-4.097zm-104.4-46.597c-.884-3.81-.298-7.261 1.656-9.731 2.137-2.7 5.88-4.183 10.542-4.183H92.63c4.658 0 8.4 1.484 10.533 4.178 1.953 2.465 2.54 5.92 1.655 9.73l-3.609 15.528a44.278 44.278 0 00-4.886-3.077l2.436-11.529c.437-2.072.82-5.08-.9-7.2-1.133-1.4-2.902-2.107-5.264-2.107l-34.297.005c-2.366 0-4.136.707-5.27 2.106-1.714 2.122-1.331 5.124-.894 7.201l2.43 11.529c-1.699.916-3.33 1.952-4.885 3.077l-3.62-15.527zm12.193 10.672L56.02 18.502c-.417-1.977-.387-3.277.095-3.87.422-.522 1.421-.632 2.182-.632h34.292c.76 0 1.755.11 2.177.633.478.592.512 1.892.095 3.87l-2.232 10.576a43.844 43.844 0 00-17.189-3.49 43.766 43.766 0 00-17.188 3.486zm-4.613 74.579l-.183-.12c-11.393-7.48-18.198-20.079-18.198-33.708 0-22.2 18.023-40.258 40.182-40.258 22.16 0 40.183 18.057 40.183 40.258 0 1.683-.139 3.356-.343 5.02h-11.651c.388-1.903.602-3.85.602-5.817 0-15.906-12.914-28.849-28.79-28.849-15.878 0-28.796 12.943-28.796 28.849 0 9.766 4.876 18.794 13.113 24.188.318.21.74.483 1.278.757v2.918c0 2.261 1.834 4.104 4.09 4.104h7.218v4.581c0 .04.015.08.015.125H60.792c-4.041 0-5.84-1.182-7.153-2.048zm18.705-6.668l-7.332-.095.114-27.908h7.218v28.003zm3.976 8.59l.115-45.278 10.423.115-.114 45.283h-10.24c-.04-.055-.08-.12-.184-.12zm10.424-49.262h-10.31a4.098 4.098 0 00-4.09 4.099v4.586h-7.218a4.098 4.098 0 00-4.09 4.099v20.118c-6.522-4.671-10.414-12.12-10.414-20.188 0-13.715 11.134-24.865 24.819-24.865 13.684 0 24.813 11.155 24.813 24.865 0 1.972-.238 3.924-.696 5.816H90.83V60.413a4.09 4.09 0 00-4.086-4.099zM97.43 103.53l-.204.129c-1.228.802-2.898 1.873-6.402 2.012 0-.035.01-.06.01-.095V91.144h18.68c-3.087 4.94-7.208 9.188-12.084 12.385zm-6.596-16.364v-8.337h33.914v8.337H90.835zm48.43 18.41c0 .07-.06.124-.115.124l-10.423-.124.119-45.278 10.414.114.005 45.164zm11.194-8.56h-7.218l-.005-28.008 7.342.09-.119 27.917z" fill="#CAAE5B"/><path d="M80.757 124.109a.833.833 0 01-.831.832H5.058a.833.833 0 01-.832-.832v-47.01c0-.458.374-.832.832-.832h74.868c.458 0 .831.374.831.832v47.01z" fill="#F9F6EE"/><path d="M31.383 103.179a8.712 8.712 0 002.444-6.057V93.64c0-4.822-3.923-8.745-8.744-8.745-4.822 0-8.744 3.923-8.744 8.745v3.482c0 2.349.931 4.484 2.443 6.057-4.545 1.339-7.668 4.079-7.668 7.234v4.12a1.78 1.78 0 103.56 0v-4.12c0-1.81 4.15-4.547 10.407-4.547 6.258 0 10.408 2.737 10.408 4.547v4.12a1.78 1.78 0 103.56 0v-4.12c0-3.155-3.122-5.895-7.666-7.234zm-1.116-6.057a5.191 5.191 0 01-5.184 5.185 5.19 5.19 0 01-5.184-5.185V93.64a5.19 5.19 0 015.184-5.185 5.19 5.19 0 015.184 5.185v3.482zM70.35 88.378H47.714a1.78 1.78 0 000 3.56H70.35a1.78 1.78 0 000-3.56zM70.35 97.084H47.714a1.78 1.78 0 000 3.559H70.35a1.78 1.78 0 000-3.56zM61.644 105.789H47.715a1.78 1.78 0 000 3.56h13.93a1.78 1.78 0 000-3.56z" fill="#F9F6EE"/><path d="M79.926 72.708H5.058a4.396 4.396 0 00-4.391 4.391v47.01a4.396 4.396 0 004.391 4.391h74.868a4.396 4.396 0 004.39-4.391v-47.01a4.396 4.396 0 00-4.39-4.391zm.831 51.401a.833.833 0 01-.831.832H5.058a.833.833 0 01-.832-.832v-47.01c0-.458.374-.832.832-.832h74.868c.458 0 .831.374.831.832v47.01z" fill="#CAAE5B"/><path d="M31.383 103.179a8.712 8.712 0 002.444-6.057V93.64c0-4.822-3.923-8.745-8.744-8.745-4.822 0-8.744 3.923-8.744 8.745v3.482c0 2.349.931 4.484 2.443 6.057-4.545 1.339-7.668 4.079-7.668 7.234v4.12a1.78 1.78 0 103.56 0v-4.12c0-1.81 4.15-4.547 10.407-4.547 6.258 0 10.408 2.737 10.408 4.547v4.12a1.78 1.78 0 103.56 0v-4.12c0-3.155-3.122-5.895-7.666-7.234zm-1.116-6.057a5.191 5.191 0 01-5.184 5.185 5.19 5.19 0 01-5.184-5.185V93.64a5.19 5.19 0 015.184-5.185 5.19 5.19 0 015.184 5.185v3.482z" fill="#CAAE5B"/><path d="M70.35 88.378H47.714a1.78 1.78 0 000 3.56H70.35a1.78 1.78 0 000-3.56z" fill="#29235C"/><path d="M70.35 97.084H47.714a1.78 1.78 0 000 3.559H70.35a1.78 1.78 0 000-3.56zM61.644 105.789H47.715a1.78 1.78 0 000 3.56h13.93a1.78 1.78 0 000-3.56z" fill="#CAAE5B"/></svg>