<svg width="127" height="129" viewBox="0 0 127 129" fill="none" xmlns="http://www.w3.org/2000/svg"><g clip-path="url(#clip0_174_3020)"><path d="M98.656 43.86h-23.61c1.648-4.002 7.427-19.23 2.76-25.834-4.594-6.502-13.74-2.6-20.43.232-.52.216-1.04.447-1.546.65V5.428c.145-.694.145-1.345-.115-1.951-.954-2.254-4.176-2.254-5.23-2.254H30.746c-.216 0-5.129.043-7.888 3.323-1.59 1.878-2.11 4.392-1.575 7.44 1.473 8.381 9.305 27.395 11.197 31.889h-22.9c-4.696 0-8.525 3.843-8.525 8.539v58.127c0 4.695 3.829 8.524 8.524 8.524h89.09c4.696 0 8.525-3.829 8.525-8.524V52.414c0-4.696-3.829-8.54-8.525-8.54l-.014-.014zM58.373 20.555c6.227-2.659 13.972-5.953 17.41-1.098 3.7 5.245-1.198 19.36-3.424 24.36l.102.043H51.293l-5.1-22.38c2.153 1.242 5.014 1.806 7.99.765 1.272-.448 2.688-1.054 4.19-1.69zm-13.148-3.482s-.058-.116-.072-.188l-.058-.231c-.072-.477.072-.997.997-1.445 1.907-.91 5.057-3.136 7.282-5.592V19.89c-3.67 1.286-7.325-.852-8.149-2.832v.015zm-21.485-5.52c-.405-2.297-.072-4.103 1.026-5.389 2.008-2.398 5.938-2.442 5.982-2.442h19.736c1.95 0 2.803.39 2.948.737.621 1.488-4.48 6.675-8.41 8.525-1.849.881-2.716 2.485-2.354 4.248 0 0 .029.072.029.1l6.068 26.557H35.14l.072-.029c-.101-.216-9.84-23.233-11.443-32.292l-.03-.015zm80.955 98.988c0 3.323-2.716 6.039-6.04 6.039H9.58c-3.323 0-6.04-2.716-6.04-6.039v-47.45h101.155v47.45zm0-49.95H3.541v-8.177a6.046 6.046 0 016.04-6.04h89.09c3.322 0 6.039 2.717 6.039 6.04v8.178h-.015z" fill="#CAAE5B" stroke="#CAAE5B" stroke-width="1.44" stroke-miterlimit="10"/><path d="M53.36 9.632v10.273c-3.67 1.285-7.326-.853-8.15-2.832a.727.727 0 01-.072-.188l-.057-.231c-.073-.477.072-.997.996-1.445 1.908-.91 5.058-3.136 7.282-5.592v.015z" fill="#F9F6EE"/><path d="M42.668 17.203s.03.072.03.101l6.068 26.557H35.14l.072-.03c-.101-.216-9.84-23.233-11.444-32.292-.404-2.297-.072-4.103 1.026-5.39 2.009-2.398 5.939-2.441 5.982-2.441h19.737c1.95 0 2.803.39 2.947.737.622 1.488-4.479 6.675-8.409 8.524-1.85.882-2.716 2.486-2.355 4.248l-.029-.014z" fill="#F9F6EE"/><path d="M72.373 43.831l.102.044H51.307l-5.1-22.381c2.153 1.242 5.014 1.806 7.99.765 1.272-.447 2.688-1.054 4.19-1.69 6.228-2.659 13.972-5.953 17.41-1.098 3.7 5.245-1.198 19.361-3.424 24.36zM104.695 52.4v8.178H3.54V52.4a6.046 6.046 0 016.04-6.04h89.09c3.323 0 6.039 2.717 6.039 6.04h-.014zM104.695 63.09v47.45c0 3.323-2.717 6.039-6.04 6.039H9.58c-3.324 0-6.04-2.716-6.04-6.039V63.09h101.155zM123.694 100.701c-.506 3.294-2.095 5.88-4.291 6.935a10.18 10.18 0 01-4.898.766c.115-.564.217-1.127.303-1.719 1.07 0 2.124-.246 3.092-.68 2.774-1.358 4.133-4.883 4.205-7.585.072-2.427-.809-4.35-2.442-5.288a10.543 10.543 0 00-4.551-1.084v-1.748c2.21 0 5.302.289 6.444 1.358 1.835 1.835 2.687 5.447 2.138 9.045z" fill="#F9F6EE"/><path d="M80.248 99.213v9.074h-7.687v-9.074l2.645-1.835v2.182c0 .635.52 1.127 1.141 1.127s1.127-.521 1.127-1.127v-2.225l2.774 1.878z" fill="#F9F6EE"/><path d="M112.064 89.388v13.582c0 12.426-10.085 22.496-22.511 22.511h-5.852c-12.425 0-22.496-10.085-22.51-22.511V89.345h14v5.23l-4.436 3.02a1.183 1.183 0 00-.476.939v10.923c0 .636.505 1.142 1.127 1.142h9.955c.635 0 1.127-.521 1.127-1.142V98.621c0-.39-.174-.737-.492-.94l-4.55-3.077v-5.216h34.618z" fill="#F9F6EE"/><path d="M123.607 89.561c-2.124-2.008-6.444-2.225-8.51-2.196v-1.011H58.155v16.659C58.2 117.1 69.613 128.486 83.7 128.5h5.852a25.574 25.574 0 0024.1-17.093c.564.073 1.127.102 1.705.102 1.85.028 3.685-.362 5.375-1.142 3.121-1.503 5.288-4.855 5.967-9.204.708-4.609-.505-9.16-3.092-11.602zm-11.559 13.408c-.014 12.426-10.07 22.497-22.496 22.511H83.7c-12.425-.014-22.482-10.085-22.51-22.511V89.344h14l3.728.044h33.13v13.581zm3.02.029l.029-7.802c1.069 0 2.124.246 3.092.694.593.317.939 1.285.91 2.528-.072 2.11-1.17 4.277-2.528 4.927a4.186 4.186 0 01-1.503.376v-.723zm8.626-2.297c-.506 3.294-2.095 5.881-4.291 6.935a9.82 9.82 0 01-4.898.766c.115-.563.216-1.127.303-1.705a7.39 7.39 0 003.092-.693c2.774-1.359 4.132-4.87 4.205-7.586.086-2.427-.809-4.349-2.442-5.288a10.543 10.543 0 00-4.551-1.084v-1.748c2.225 0 5.317.303 6.444 1.373 1.835 1.835 2.687 5.447 2.138 9.03z" fill="#CAAE5B"/><path d="M82.025 97.682l-4.551-3.078v-5.23h1.445l-3.728-.03v5.231l-4.421 3.02a1.19 1.19 0 00-.477.954v10.908c0 .636.491 1.142 1.127 1.142h9.955c.636 0 1.127-.506 1.127-1.142V98.621a1.072 1.072 0 00-.477-.94zM80.248 108.3h-7.687v-9.073l2.63-1.85v2.196c.014.622.52 1.127 1.156 1.127.636 0 1.127-.505 1.127-1.127V97.35l2.774 1.879v9.073z" fill="#29235C"/></g><defs><clipPath id="clip0_174_3020"><path fill="#fff" transform="translate(.333 .5)" d="M0 0h126.57v128H0z"/></clipPath></defs></svg>