<svg width="58" height="56" viewBox="0 0 58 56" fill="none" xmlns="http://www.w3.org/2000/svg"><g clip-path="url(#clip0_176_2039)"><path d="M57.683 31.042c-.645-9.405-8.427-16.722-17.85-16.798C36.69 3.692 25.587-2.306 15.044.835 4.492 3.976-1.505 15.08 1.635 25.632a19.913 19.913 0 0010.942 12.489 25.52 25.52 0 00-5.124 3.644L4.7 44.261a2.85 2.85 0 00.218 4.384l3.046 2.287A25.522 25.522 0 0023.15 56h2.714a25.522 25.522 0 0015.184-5.068l1.073-.806c8.939-1.205 15.62-8.826 15.63-17.85v-.741a.873.873 0 00-.067-.493zm-3.796 8.398a.96.96 0 00-.883-.522h-6.253l-2.174-2.173 1.68-5.855 2.847-1.329 5.258 3.502c.16.104.35.161.54.161a.946.946 0 00.427-.104l.494-.247a16.098 16.098 0 01-1.813 6.88l-.123-.313zm-10.373 4.033l-1.85-1.708a25.26 25.26 0 00-5.466-3.796h6.927l2.079 2.088-1.69 3.416zM7.349 7.896l12.053 12.042-3.009 3.009a19.91 19.91 0 00-11.995-5.125l-1.528-.114a17.878 17.878 0 014.48-9.812zm11.274-4.3a19.94 19.94 0 005.125 11.986L20.739 18.6 8.696 6.548a17.878 17.878 0 019.813-4.48l.113 1.529zm15.516 4.29a17.856 17.856 0 013.74 6.453 17.894 17.894 0 00-8.598 3.303 19.074 19.074 0 01-2.847-2.06l7.705-7.696zm9.898 8.864l.247.73-4.565 3.199-4.564-3.198.247-.731a15.712 15.712 0 018.635 0zm.171 13.969v.057l.057.095-1.461 5.2h-6.169l-1.509-5.286 4.593-3.065 4.49 2.999zm-10.296-1.405l-3.9-1.565-1.747-4.366a.895.895 0 00-.455-.493l-.864-.437a16.193 16.193 0 016.178-4.887.945.945 0 00.36 1.063l5.287 3.7v3.74l-4.86 3.245zm-8.038-5.276l.759.38 1.537 3.796-3.796 3.796-.787-.304a15.908 15.908 0 012.287-7.668zm1.793-5.134a18.373 18.373 0 00-2.79 3.15c-.095.086-.18.19-.237.304v.105l-2.562-2.525 3.017-3.017c.798.73 1.661 1.395 2.572 1.983zm-6.927 2.372l2.894 2.895a17.888 17.888 0 00-1.898 6.833 19.794 19.794 0 00-4.024-6.72l3.028-3.008zm3.122 13.846a19.118 19.118 0 01-.19-1.29l.437.218a.857.857 0 00.427.123.94.94 0 00.673-.275l4.3-4.308 3.729 1.499 1.736 6.187c.01.048.038.105.067.143a25.387 25.387 0 00-10.505-2.297h-.674zm28.878-12.337a16.1 16.1 0 013.037 7.99l-.807.409-4.66-3.113 1.51-5.286h.92zm-1.633-1.898a.94.94 0 00-.949.693l-1.784 6.216-2.96 1.414-4.745-3.141v-3.74l5.285-3.7a.946.946 0 00.408-1.063 16.217 16.217 0 014.745 3.321zM32.781 6.548l-7.686 7.696a18.012 18.012 0 01-4.584-10.78l-.104-1.556a17.943 17.943 0 0112.374 4.64zM2.708 19.606l1.528.105a18.022 18.022 0 0110.809 4.574L7.348 31.98a17.943 17.943 0 01-4.64-12.375zm5.94 13.732l7.744-7.706a17.864 17.864 0 014.451 9.765 24.86 24.86 0 00-5.903 1.623 18.32 18.32 0 01-6.263-3.682h-.028zm31.317 16.076a23.57 23.57 0 01-14.073 4.688h-2.714a23.507 23.507 0 01-14.074-4.688l-3.046-2.287a.954.954 0 01-.076-1.462l2.704-2.486a23.663 23.663 0 016.539-4.213.997.997 0 00.399-.171 23.396 23.396 0 0124.759 4.384l2.704 2.486a.954.954 0 01-.076 1.462l-3.046 2.287zm5.077-1.898c.133-.304.219-.617.247-.949a2.839 2.839 0 00-.398-1.566l2.059-4.185h5.466l.427.845a16.16 16.16 0 01-7.8 5.798v.057z" fill="#CAAE5B"/><path d="M33.075 44.612h-.949v-.949a.952.952 0 00-.949-.949.952.952 0 00-.949.95v.948H28.33v-.949a.952.952 0 00-.949-.949.952.952 0 00-.949.95v.948h-1.898v-.949a.952.952 0 00-.949-.949.952.952 0 00-.949.95v.948h-1.898v-.949a.952.952 0 00-.949-.949.952.952 0 00-.949.95v.948h-1.898v-.949a.952.952 0 00-.949-.949.952.952 0 00-.949.95v.948h-.949a.952.952 0 00-.949.95c0 .521.427.948.95.948h.948v.95c0 .521.428.948.95.948a.952.952 0 00.948-.949v-.949h1.898v.95c0 .521.427.948.95.948a.952.952 0 00.948-.949v-.949h1.898v.95c0 .521.428.948.95.948a.952.952 0 00.948-.949v-.949h1.898v.95c0 .521.427.948.95.948a.952.952 0 00.948-.949v-.949h1.898v.95c0 .521.427.948.95.948a.952.952 0 00.948-.949v-.949h.95a.952.952 0 00.948-.949.952.952 0 00-.949-.949z" fill="#29235C"/></g><defs><clipPath id="clip0_176_2039"><path fill="#fff" transform="translate(.8)" d="M0 0h56.96v56H0z"/></clipPath></defs></svg>